<svg version="1.1" id="Layer_1" xmlns="http://www.w3.org/2000/svg" xmlns:xlink="http://www.w3.org/1999/xlink" x="0px" y="0px"
	 width="100%" viewBox="0 0 473 473" xml:space="preserve">
<path fill="#FFFFFF" opacity="1.000000" stroke="none" 
	d="
M473.658447,267.844482 
	C474.000000,335.301910 473.973541,402.603821 474.081604,469.905579 
	C474.086792,473.121399 473.716492,474.108643 470.097931,474.105774 
	C315.003784,473.982880 159.909546,473.980591 4.815438,474.114075 
	C1.019258,474.117340 0.930334,472.855072 0.933315,469.819000 
	C1.016419,385.191833 1.000000,300.564575 1.000000,215.468658 
	C10.618535,210.545883 19.800621,205.146774 29.826876,201.583588 
	C32.089085,200.779617 34.447113,199.361450 37.136169,201.536255 
	C38.108463,203.517426 37.626995,205.187622 36.913620,206.635590 
	C32.419388,215.757767 37.641071,228.695938 47.818256,233.940033 
	C52.710892,236.461121 57.811985,238.296692 63.504009,239.640457 
	C64.383621,239.710037 64.884789,239.774139 65.758606,239.934357 
	C68.310814,240.721054 70.416763,241.667221 73.083206,242.136230 
	C73.685860,242.410858 73.913155,242.552979 74.389084,243.014450 
	C75.736084,250.213287 78.074554,256.830811 78.831085,264.119263 
	C73.092918,268.705017 66.019608,270.096008 60.223816,273.993713 
	C58.490543,275.159332 56.722202,275.530579 57.187954,278.697144 
	C57.718315,282.302948 53.893478,283.283936 51.199249,284.326080 
	C44.815937,286.795105 38.645744,289.596649 33.143154,293.740723 
	C31.140995,295.248596 29.280947,296.891846 27.599106,298.740356 
	C25.475388,301.074524 25.997007,302.974426 28.714294,304.263306 
	C32.501087,306.059448 36.303276,306.184906 40.278454,304.525635 
	C45.808090,302.217499 47.585167,303.624695 46.794960,309.478607 
	C46.234562,313.630005 50.948635,313.663513 52.184490,316.578217 
	C52.964725,318.418365 54.810406,316.890564 56.041386,316.200958 
	C58.511642,314.817078 61.174576,313.836304 63.642754,312.452942 
	C69.486084,309.177887 75.288643,308.632202 80.922173,312.898285 
	C82.885773,314.385284 84.904999,314.556915 86.956276,313.329132 
	C91.182556,310.799408 95.735474,310.509979 100.817108,311.123749 
	C102.395515,311.144165 103.508293,311.569061 104.210075,312.524078 
	C109.062202,319.127106 115.042679,324.823090 119.699371,332.029297 
	C119.649712,337.207245 117.686630,341.663879 116.937416,346.385925 
	C116.181236,351.151978 116.098068,355.648224 118.994362,359.812408 
	C119.866180,361.065857 120.195030,362.554779 119.676582,364.449097 
	C118.603409,366.116577 117.045319,366.361115 115.694794,366.951721 
	C113.804245,367.778564 112.655151,368.987335 113.263969,371.210632 
	C114.233299,374.750305 111.965561,376.183746 109.222717,376.871063 
	C105.383018,377.833252 102.586494,380.626648 99.097298,382.168884 
	C98.241066,382.547333 97.119171,383.166992 97.894691,384.373474 
	C98.409004,385.173584 99.422379,384.876373 100.191757,384.553070 
	C102.810104,383.452637 105.063614,381.692200 107.582863,380.405121 
	C110.064133,379.137451 112.469612,378.780060 114.095802,381.553772 
	C115.727760,384.337280 114.075195,386.367676 111.941605,387.906311 
	C109.370132,389.760742 106.203186,390.528595 103.492729,392.164154 
	C102.345459,392.856445 101.046722,393.523621 101.491333,395.193390 
	C101.840378,396.504211 103.035484,396.725891 104.197578,397.048523 
	C110.767456,398.872742 111.947609,401.281128 109.129272,407.348358 
	C108.112297,409.537689 107.875000,411.153229 110.747047,411.837494 
	C113.670425,412.533997 114.317635,414.451111 112.502487,416.579071 
	C110.372330,419.076324 111.180283,422.649506 108.710625,425.069153 
	C107.444717,426.309387 109.599533,427.109131 110.538658,427.607239 
	C114.363152,429.635773 114.730240,432.433167 112.669388,435.900330 
	C111.837769,437.299408 110.351135,438.696930 111.778259,440.363373 
	C113.351646,442.200653 115.183372,441.000427 116.773094,440.204041 
	C131.039993,433.056854 145.533035,426.355438 159.358490,418.337646 
	C163.659988,415.843048 167.924210,413.190887 173.114166,411.625000 
	C179.161118,410.211151 185.015060,410.457184 190.754379,409.624237 
	C195.350952,408.957123 200.031693,408.704346 204.374603,405.706482 
	C205.748047,405.017731 206.816711,404.912933 208.303162,405.209106 
	C216.757477,410.676453 225.674316,410.883850 234.557434,408.667084 
	C249.958801,404.823639 262.417084,395.750305 274.128632,384.853516 
	C275.192474,383.866486 276.101685,383.392639 277.552612,383.218994 
	C291.476440,381.224670 305.460388,382.168152 318.416351,376.392395 
	C328.048065,372.098602 336.722717,366.345947 345.202881,360.213867 
	C348.162567,358.073669 351.056122,355.844391 354.046112,353.742859 
	C359.192444,350.125702 359.466797,348.981262 356.893494,342.961700 
	C356.629578,342.344360 356.438873,341.717804 356.445618,340.683533 
	C357.382141,338.561340 359.096619,337.766541 360.666779,336.881287 
	C362.762360,335.699829 363.859589,334.043732 363.844177,331.274292 
	C364.034454,329.920593 364.390869,329.012970 365.239349,327.931335 
	C369.412720,324.412018 372.382568,320.269958 375.818451,316.564911 
	C376.929840,315.366455 377.849365,313.999084 379.713104,313.117371 
	C386.407379,310.761353 391.590118,306.420166 397.480743,303.350800 
	C412.991638,295.268738 429.215485,288.782349 445.186829,281.725128 
	C452.317200,278.574463 459.584564,275.625397 466.285339,270.816772 
	C468.611694,269.133728 470.602783,267.562866 473.658447,267.844482 
z"/>
<path fill="#FFFFFF" opacity="1.000000" stroke="none" 
	d="
M1.302733,198.223267 
	C1.000000,133.863419 1.031852,69.726784 0.915197,5.590419 
	C0.908692,2.013902 1.449406,0.889177 5.405603,0.892414 
	C160.166229,1.019070 314.926971,1.012725 469.687653,0.917469 
	C473.117676,0.915358 474.117950,1.401391 474.111572,5.183908 
	C473.966583,91.143318 474.000000,177.103027 474.000000,263.531342 
	C466.724640,266.356781 459.132172,267.281769 451.626373,267.025726 
	C440.121826,266.633301 428.653412,265.184814 417.731903,270.359253 
	C416.394135,270.993042 414.872345,271.189117 412.977661,270.805634 
	C410.350159,268.785248 412.089417,267.490265 413.374695,266.278229 
	C416.490295,263.340149 420.454041,262.023773 424.402069,260.660797 
	C430.193176,258.661560 436.306305,257.377869 441.045166,253.014587 
	C442.400513,251.766632 444.375336,250.807877 443.506012,248.650360 
	C442.480194,246.104401 440.716309,248.150497 439.299561,248.414139 
	C437.944855,248.666199 436.604736,248.991196 435.714142,247.606934 
	C434.877014,246.305740 435.330872,245.001617 436.156586,243.890625 
	C439.120972,239.901947 442.976959,237.168839 447.706055,235.559265 
	C451.635651,234.221802 455.824921,233.576035 459.455688,231.434219 
	C462.900757,229.401947 462.805542,222.937500 459.315399,221.057953 
	C457.706879,220.191711 456.437775,221.457291 455.203064,222.158279 
	C451.457520,224.284851 447.999237,226.875778 443.517883,227.544586 
	C437.875580,228.386673 433.783356,225.793976 432.420654,220.231476 
	C431.734070,217.428894 433.045410,215.797546 435.309052,214.578903 
	C439.579895,212.279724 444.167725,210.787964 448.729828,209.204987 
	C455.054077,207.010574 455.557983,205.197388 452.585052,199.270111 
	C450.691132,195.494049 449.027069,192.028122 443.837250,193.907608 
	C443.549377,194.011856 443.179047,193.869781 442.856537,193.783401 
	C437.838226,192.439270 433.808868,180.227310 437.049072,176.187012 
	C439.829803,172.719620 439.316498,166.039902 436.144745,163.062500 
	C434.260437,161.293625 432.261688,161.581818 430.104187,162.282318 
	C428.672638,162.747147 427.033142,163.252655 425.959869,161.802933 
	C424.880890,160.345551 425.885193,158.860489 426.709106,157.668839 
	C431.867371,150.208511 432.541962,141.994949 431.014099,133.365067 
	C430.389221,129.835739 428.931732,127.163696 425.051422,126.260857 
	C421.283569,125.384209 420.429443,122.782463 421.757965,119.374466 
	C423.402008,115.157166 424.587341,110.846115 424.702576,106.298416 
	C424.894775,98.710381 420.140228,95.807274 413.319580,99.343567 
	C412.144897,99.952621 411.192841,100.957092 409.498230,101.390442 
	C405.649109,100.481049 403.555237,98.381348 403.589294,94.270126 
	C418.159973,89.520454 430.657013,80.988617 444.341309,75.007599 
	C445.104248,74.674141 445.852631,74.293327 446.504791,73.770599 
	C447.687561,72.822639 449.150452,71.732460 448.327728,70.091454 
	C447.371582,68.184410 445.771973,69.349777 444.429382,69.894043 
	C437.686951,72.627220 431.580719,76.967903 423.961395,77.499527 
	C421.015015,77.705109 418.628113,77.428238 417.171173,74.648201 
	C415.665039,71.774292 413.625336,71.858925 410.891235,72.886429 
	C404.652069,75.231178 402.999115,74.291771 401.152130,67.966637 
	C399.560822,62.516972 398.442322,61.839481 392.947449,62.835430 
	C390.637421,63.254128 388.497894,64.244095 386.242798,64.770668 
	C383.855469,65.328110 380.902924,66.104408 379.599243,63.237232 
	C378.416199,60.635342 380.770477,59.009167 382.565216,57.526180 
	C384.887390,55.607376 387.739349,54.522907 390.180908,52.766190 
	C395.240509,49.125748 395.452881,46.917194 391.089386,42.529869 
	C388.966187,40.395088 386.370789,39.390694 383.449646,39.349068 
	C379.768066,39.296608 377.011047,38.016102 375.572418,34.416958 
	C374.566284,31.899878 372.786316,32.084976 370.669647,33.060616 
	C355.407562,40.095394 340.089905,47.012703 325.220306,54.864544 
	C323.605194,55.717396 322.097046,56.803257 320.213776,57.026234 
	C317.431305,57.355675 315.235016,56.656246 314.404541,53.646511 
	C314.094330,52.522381 313.694702,51.424782 313.396942,50.300232 
	C311.155518,41.834503 310.444458,41.226807 302.086823,43.080982 
	C297.125244,44.181732 291.657745,43.652588 287.029541,47.391491 
	C278.656799,47.386219 270.970459,44.981514 263.051483,44.018921 
	C230.351898,40.044102 199.156754,44.917614 169.254959,58.807777 
	C156.301926,64.824791 144.706268,72.749916 133.477203,82.028221 
	C111.869965,97.856110 97.381409,118.763802 86.263809,142.699158 
	C86.106880,143.513550 85.974915,143.967041 85.661667,144.729294 
	C83.662132,146.877975 82.995316,149.346268 81.798172,151.921814 
	C80.207832,154.022583 78.599190,155.680969 77.277618,157.982666 
	C74.613533,159.391754 72.119789,160.488541 71.794167,164.058685 
	C71.297928,165.041092 70.755150,165.495346 69.731171,165.911835 
	C64.636002,166.289062 61.952923,169.942230 58.310829,172.727966 
	C52.756920,174.144104 48.058018,176.705963 43.450867,179.257950 
	C31.391382,185.937927 18.639833,191.148285 6.306449,197.237106 
	C4.838417,197.961823 3.389354,198.891312 1.302733,198.223267 
z"/>
<path fill="#FDC2CD" opacity="1.000000" stroke="none" 
	d="
M411.585815,269.985962 
	C419.042236,269.412354 425.412720,265.858276 432.432800,264.635529 
	C434.806549,264.222107 436.901154,263.679199 439.006866,265.300018 
	C439.606415,265.761505 440.627930,266.136566 441.305725,265.963348 
	C448.391907,264.152863 455.726562,267.101257 462.750214,264.829559 
	C466.156128,263.727966 469.630646,264.121490 473.543213,263.992615 
	C474.000000,265.066681 474.000000,266.133331 474.000000,267.600006 
	C471.921112,268.982117 469.842224,269.964233 467.417969,270.998230 
	C450.478058,278.790466 433.336639,285.059692 415.750763,290.135071 
	C410.168701,291.746063 404.472992,292.986389 399.108734,295.308167 
	C397.077423,296.187408 394.966125,296.528168 392.444275,295.610565 
	C390.752045,293.853424 391.469788,292.260071 392.241547,290.844086 
	C395.542389,284.787872 398.133728,278.416779 401.079773,271.841736 
	C404.758057,271.478973 408.022278,270.729492 411.585815,269.985962 
z"/>
<path fill="#FDEAEB" opacity="1.000000" stroke="none" 
	d="
M1.000000,198.467606 
	C6.911839,195.373093 12.904018,192.911407 18.718510,190.084290 
	C30.213614,184.495148 41.615681,178.714325 53.041058,172.982529 
	C54.421730,172.289871 55.817646,171.884735 57.760807,172.031830 
	C58.470337,172.434555 58.627987,172.868805 58.615074,173.705948 
	C58.371845,174.750336 58.048843,175.383408 57.470329,176.281372 
	C49.380039,183.346817 44.150185,191.974014 39.775696,201.632980 
	C39.181011,202.237946 38.744297,202.402481 37.915108,202.307251 
	C33.891727,200.189301 30.851522,202.698608 27.676075,203.736359 
	C20.543657,206.067276 14.263656,210.274933 7.430518,213.287170 
	C5.606534,214.091232 3.913919,215.230530 1.393969,215.001556 
	C1.000000,209.645065 1.000000,204.290146 1.000000,198.467606 
z"/>
<path fill="#FEEBEC" opacity="1.000000" stroke="none" 
	d="
M173.267761,412.609772 
	C165.629837,415.458862 159.055969,419.739197 152.306274,423.545563 
	C140.298431,430.317169 127.676659,435.820068 115.497482,442.217438 
	C113.769806,443.124908 111.787514,443.689331 110.616768,441.730133 
	C109.607918,440.041840 108.656639,438.350891 110.956360,436.142700 
	C114.298164,432.933868 113.599838,430.794434 109.558502,428.720184 
	C106.619713,427.211823 107.201759,427.445709 108.672371,423.786499 
	C109.974564,420.546295 110.082100,416.819519 112.702553,414.607513 
	C112.420845,413.157715 111.699677,413.143402 111.059822,413.034515 
	C106.324005,412.228302 105.293549,410.346375 108.061485,406.626038 
	C109.520912,404.664490 110.433495,403.143188 108.952194,400.900848 
	C107.676918,398.970367 106.464317,397.655151 103.689476,398.496429 
	C101.180122,399.257172 100.385422,396.778931 99.588707,395.031128 
	C98.531784,392.712463 100.629990,392.200439 102.027824,391.513733 
	C104.706543,390.197754 107.595032,389.262085 110.145027,387.745728 
	C112.131989,386.564148 115.057587,385.277191 113.338043,382.056793 
	C111.681854,378.955048 109.401566,380.725708 107.414902,381.838348 
	C105.101059,383.134186 102.702576,384.358582 100.627838,385.981018 
	C98.171227,387.902161 96.825867,386.150421 95.732658,384.645264 
	C93.892632,382.111816 96.685341,382.091858 97.905167,381.487366 
	C102.000435,379.457947 105.369865,376.024414 110.172012,375.314545 
	C111.385612,375.135162 113.294579,374.109955 112.581230,372.711792 
	C109.168175,366.022339 114.535439,366.177704 118.679626,365.001099 
	C121.478760,363.579071 122.790024,365.634857 124.174370,366.814301 
	C132.516586,373.921600 141.061920,380.696899 150.701752,386.047119 
	C154.340546,388.066681 157.926834,390.218201 161.849930,391.494934 
	C168.069748,393.519135 171.567734,397.504059 172.387695,403.961731 
	C172.740479,406.740112 173.877625,409.415375 173.267761,412.609772 
z"/>
<path fill="#FCD2D9" opacity="1.000000" stroke="none" 
	d="
M173.464584,412.886475 
	C172.358398,409.525330 171.604996,406.135132 170.973236,402.722382 
	C170.114517,398.083527 167.595612,394.773376 163.152390,393.197906 
	C150.168991,388.594299 139.131195,380.847107 128.649094,372.157623 
	C125.728241,369.736298 122.718689,367.421936 119.408997,365.026794 
	C119.031754,364.173340 119.316734,363.114166 118.911148,362.565125 
	C111.825729,352.973114 116.255936,343.459961 118.983650,333.924988 
	C119.116486,333.460632 119.064110,332.943298 119.161453,332.072388 
	C119.995918,331.626312 120.662086,331.908905 121.585342,332.529968 
	C137.414612,348.697174 155.757767,360.474609 176.169907,369.134033 
	C178.906937,370.295197 181.058624,371.883911 182.386093,374.552521 
	C187.762421,385.360443 194.187317,395.371307 203.891693,402.901306 
	C204.551056,403.412933 204.925110,404.192322 205.106750,405.377808 
	C201.865097,411.369965 195.943710,409.957184 191.060043,410.875763 
	C185.406952,411.939087 179.607498,412.224335 173.464584,412.886475 
z"/>
<path fill="#FDEAEB" opacity="1.000000" stroke="none" 
	d="
M101.442703,310.518799 
	C101.180237,311.677917 100.644302,312.730804 99.848793,312.494171 
	C94.780212,310.986237 90.416588,312.823456 86.100235,315.090485 
	C84.134811,316.122772 82.526123,315.960663 80.725830,314.332611 
	C76.100937,310.150208 70.746361,309.889252 65.505554,312.875183 
	C61.908333,314.924713 57.831543,315.996460 54.525974,318.633514 
	C53.004459,319.847351 51.145554,320.615631 50.888947,317.336426 
	C50.776169,315.895264 49.683743,314.934082 48.498154,314.317719 
	C45.594952,312.808472 42.109394,311.671021 46.416981,307.799683 
	C47.304779,307.001831 46.375504,306.002930 45.705086,305.227539 
	C44.374176,303.688293 42.983570,304.355408 41.694530,305.162292 
	C37.304256,307.910370 32.807835,307.426849 28.323709,305.593475 
	C23.837633,303.759308 23.362345,301.287994 26.625853,297.859833 
	C32.936768,291.230530 40.733490,287.022034 49.175285,283.798859 
	C51.320652,282.979736 53.353683,281.845062 55.382317,280.751465 
	C56.264847,280.275696 57.295284,279.188629 56.231327,278.422882 
	C52.269463,275.571411 55.780380,274.967590 57.498047,274.046967 
	C63.972115,270.577057 70.261101,266.672241 77.971558,265.032227 
	C81.576454,268.272705 82.144234,272.726746 83.775055,276.669922 
	C87.858261,286.542755 92.754036,295.969818 98.716415,304.839294 
	C99.831161,306.497559 100.960976,308.152557 101.442703,310.518799 
z"/>
<path fill="#905C6C" opacity="1.000000" stroke="none" 
	d="
M205.400650,405.799438 
	C193.975067,397.283356 186.468674,386.059906 180.539871,373.664673 
	C179.552277,371.599915 177.869827,370.908386 176.019638,370.128479 
	C155.438919,361.453369 137.034409,349.508820 121.143356,333.289246 
	C120.511559,332.346191 120.268791,331.630524 120.493103,330.461182 
	C125.201630,328.944336 127.511543,332.436218 130.151810,334.935364 
	C142.620209,346.737488 156.912872,355.738007 172.447479,362.878662 
	C172.754440,363.019745 173.064117,363.130768 173.917252,363.197845 
	C171.380722,355.899475 168.667511,348.865387 166.544449,341.634064 
	C162.697678,328.531769 160.144104,315.097656 155.931702,302.082275 
	C150.431931,285.089203 139.218063,273.211060 123.856956,264.851074 
	C113.745438,259.348083 103.169273,254.874619 91.952164,250.945389 
	C87.833885,248.596573 82.974556,248.974670 79.484612,245.378128 
	C79.244385,244.468719 79.281937,243.938141 79.660057,243.071381 
	C83.204010,240.866241 86.136253,243.265396 89.654678,243.652618 
	C108.636063,249.722488 126.668999,256.822083 141.932312,269.541412 
	C153.186707,278.920013 160.116440,290.900513 164.119446,304.864471 
	C168.014725,318.452606 170.742645,332.341309 174.997055,345.837585 
	C176.802933,351.566376 179.171127,357.048279 181.320221,362.629547 
	C182.619720,366.004333 185.019287,367.863220 188.447983,368.972961 
	C200.989304,373.032135 213.682465,376.235229 226.929260,376.745850 
	C228.768311,376.816772 230.529831,377.360687 232.764435,377.506989 
	C243.385620,377.232971 253.627380,378.223022 264.204224,376.571899 
	C271.928070,375.092194 279.986420,375.760651 285.748474,368.913086 
	C289.436127,365.932007 291.380798,361.665161 295.802246,359.516235 
	C296.930145,359.345154 297.614166,359.532776 298.329651,360.423920 
	C298.605621,365.043884 294.681458,366.747284 292.834747,369.689331 
	C312.210449,364.027039 333.267822,352.133453 350.919342,336.836243 
	C354.436493,333.788177 358.277802,331.090302 361.109070,327.297974 
	C362.029419,326.065216 363.203156,325.131104 365.262970,325.474548 
	C366.278137,326.076324 366.557648,326.725616 366.271973,327.871643 
	C365.710297,328.868256 365.337769,329.532776 364.842041,330.456909 
	C362.877380,334.000824 359.649811,336.076630 357.159027,339.253967 
	C339.390381,356.543701 318.463837,367.788513 295.534058,375.609192 
	C289.584137,377.638519 283.362946,379.034668 278.251526,383.666016 
	C277.183044,384.136230 276.472321,384.520416 275.468140,384.987366 
	C274.483368,385.548676 273.733459,385.798767 272.521820,385.496063 
	C271.910004,382.937805 271.182922,381.703186 268.196442,382.193451 
	C259.991577,383.540375 251.738464,384.332062 243.371445,384.422729 
	C225.392853,384.617584 207.865280,382.183228 190.722168,376.830688 
	C190.087570,376.632568 189.457886,376.412628 188.783798,376.380554 
	C188.436356,376.364014 188.141769,376.467773 187.494522,377.113007 
	C192.796173,385.544708 197.710709,394.353394 206.325806,400.302155 
	C208.190140,401.589447 210.626770,402.308075 211.327728,405.239563 
	C210.739960,406.386871 210.016632,406.635590 208.727600,406.403748 
	C207.455170,406.163757 206.590332,406.012421 205.400650,405.799438 
z"/>
<path fill="#926371" opacity="1.000000" stroke="none" 
	d="
M366.385681,328.060547 
	C365.842346,327.565887 365.601898,326.928101 365.071625,326.098877 
	C363.752838,323.492401 365.717346,322.319519 366.933044,320.898956 
	C372.491425,314.403870 377.561615,307.563202 382.023895,299.842590 
	C387.409119,292.304871 391.336029,284.402161 394.708862,275.796997 
	C395.409271,274.092834 395.757416,272.658630 396.305328,270.892609 
	C402.208740,257.840302 405.022522,244.354309 406.546143,230.615097 
	C407.917023,218.253067 408.604095,205.827515 406.269867,193.050873 
	C396.436829,217.720016 382.874146,240.086258 369.161041,262.813232 
	C367.828613,264.899994 367.139954,267.051208 364.478729,267.882263 
	C363.532990,267.954254 363.004395,267.860962 362.152588,267.450592 
	C360.926086,266.015594 361.132874,264.718170 361.662842,263.044678 
	C373.035004,243.802567 384.684784,225.153732 394.031281,205.209259 
	C396.151825,200.684250 398.236298,196.149628 400.069824,191.104263 
	C402.803864,184.858612 405.009308,178.917023 402.225952,172.051880 
	C402.109406,171.224838 402.106873,170.753937 402.249908,169.954803 
	C402.745300,168.616287 403.691132,168.702209 404.819275,168.499756 
	C405.731781,168.443741 406.256805,168.704056 407.011078,169.136215 
	C407.649567,169.319611 407.954895,169.163513 408.347046,168.580139 
	C410.394226,163.998734 409.522461,158.856110 412.954071,154.732986 
	C413.843842,154.401962 414.381195,154.435165 415.248047,154.875504 
	C417.228394,159.708527 414.983063,164.155228 415.044556,169.085907 
	C412.393127,174.768051 410.384186,180.152267 411.812256,186.566681 
	C412.213745,188.252075 412.265106,189.580414 412.350281,191.305908 
	C412.377045,192.781403 412.482483,193.843658 412.945374,195.271729 
	C413.416504,197.651123 413.452911,199.646072 413.405273,202.086273 
	C413.384979,208.521683 413.390411,214.516922 413.404968,220.951691 
	C413.475922,223.397858 413.456604,225.401581 413.143311,227.804382 
	C412.819214,229.496994 412.290222,230.731339 412.330200,232.458313 
	C412.309082,233.843521 412.194641,234.837570 411.973389,236.184906 
	C411.683502,237.456253 411.341675,238.343750 411.263428,239.640823 
	C411.189148,240.670685 411.087982,241.348663 410.893311,242.351822 
	C410.590088,243.522583 410.297913,244.350449 410.166260,245.547440 
	C410.078735,246.294388 410.005798,246.716400 409.836761,247.442932 
	C409.577515,248.348206 409.364899,248.936646 409.168549,249.851059 
	C409.036804,250.562088 408.948120,250.965790 408.763550,251.665680 
	C408.495361,252.556412 408.298859,253.144974 408.127167,254.067108 
	C408.004761,254.803909 407.918976,255.225525 407.745544,255.967743 
	C407.496490,256.947235 407.329132,257.604919 407.214142,258.638397 
	C406.284607,263.409454 405.306244,267.790894 402.231812,271.739624 
	C399.024200,279.587463 395.608124,286.968933 391.750214,294.534729 
	C389.891510,302.330444 385.380249,308.111969 379.968414,313.676819 
	C375.317627,318.508850 371.003082,323.213135 366.385681,328.060547 
z"/>
<path fill="#FAD0D8" opacity="1.000000" stroke="none" 
	d="
M278.115356,384.062531 
	C280.375031,380.061951 283.623169,377.764893 288.060699,376.506958 
	C313.688995,369.241577 336.424042,356.631775 356.546600,338.628784 
	C357.001862,338.682770 357.150299,338.907867 357.149902,339.509033 
	C357.356201,340.790192 357.599548,341.760712 358.084656,342.589783 
	C361.388580,348.236420 360.894440,350.483948 355.620331,354.181793 
	C345.749786,361.102417 336.328552,368.635681 325.582031,374.318115 
	C316.517029,379.111328 307.003937,382.334534 296.894440,382.755951 
	C290.652588,383.016083 284.560547,384.357574 278.115356,384.062531 
z"/>
<path fill="#FCD3DA" opacity="1.000000" stroke="none" 
	d="
M380.029083,313.877014 
	C383.489685,307.648560 387.347260,301.492554 391.448730,295.115540 
	C398.163605,296.023071 403.439331,292.004395 409.283722,290.541748 
	C419.985718,287.863403 430.450867,284.152588 440.874420,280.474457 
	C449.391327,277.469116 457.561066,273.503815 466.677185,271.036621 
	C465.043976,274.663330 461.120697,275.466644 457.831665,277.106537 
	C437.968109,287.010529 416.943024,294.374878 397.299957,304.784180 
	C391.642120,307.782349 386.810547,312.301331 380.029083,313.877014 
z"/>
<path fill="#946B78" opacity="1.000000" stroke="none" 
	d="
M121.414490,328.896301 
	C121.238533,330.176697 121.125717,331.111176 121.006470,332.517273 
	C120.570801,332.645599 120.141556,332.302246 119.468613,331.826477 
	C113.497887,324.922272 107.770859,318.150452 101.768661,311.129700 
	C91.863976,296.829834 84.070091,281.855591 78.563080,265.345123 
	C76.828674,258.048859 75.269440,251.050339 73.550720,243.664444 
	C73.982307,242.247345 75.548920,242.804077 76.366852,241.467621 
	C77.923653,240.975479 79.074844,241.038651 80.008102,242.476654 
	C80.015961,243.344894 79.992004,243.848801 79.965843,244.731201 
	C77.686470,248.563889 79.721947,251.808746 80.511559,255.083008 
	C81.013458,257.164185 81.488800,259.280487 82.691589,261.509155 
	C88.796547,278.914307 96.646393,295.036591 107.407867,310.079102 
	C110.974899,316.559235 116.052834,321.395325 120.725006,326.998535 
	C121.234421,327.649750 121.403168,328.080994 121.414490,328.896301 
z"/>
<path fill="#916473" opacity="1.000000" stroke="none" 
	d="
M208.563171,406.585632 
	C209.046997,406.072601 209.773972,405.830078 210.749237,405.297852 
	C211.199753,404.848450 211.401962,404.688782 211.979553,404.438629 
	C229.475479,410.173340 243.731140,403.455261 257.659546,393.829346 
	C262.383698,390.790466 265.689789,386.370239 271.165497,384.669952 
	C272.423706,384.864716 273.339569,384.943024 274.715088,385.045746 
	C264.637451,394.772583 253.338120,403.322357 239.637787,408.125275 
	C229.218369,411.777985 218.887115,412.041595 208.563171,406.585632 
z"/>
<path fill="#946B78" opacity="1.000000" stroke="none" 
	d="
M37.508751,202.557068 
	C37.820660,202.019165 38.009686,201.806793 38.317028,201.416626 
	C39.031582,201.397537 39.497246,201.646698 40.140400,202.343475 
	C41.532978,204.751526 41.001408,206.906708 40.329731,208.929153 
	C37.003185,218.945633 42.685123,228.205704 52.411121,232.627213 
	C56.137749,234.321365 60.478745,234.624817 63.813316,237.926361 
	C64.134392,238.796997 64.198280,239.320801 64.058235,240.237549 
	C57.155643,239.456100 50.847420,236.999435 45.109337,233.234131 
	C37.345798,228.139771 31.050293,218.376465 37.508751,202.557068 
z"/>
<path fill="#E6B4C5" opacity="1.000000" stroke="none" 
	d="
M357.347870,339.841736 
	C356.983429,339.647125 356.965851,339.409149 356.900818,338.814423 
	C358.742004,335.446503 361.519440,333.293274 364.409424,330.833221 
	C366.452423,336.895386 361.013519,337.527008 357.347870,339.841736 
z"/>
<path fill="#946B78" opacity="1.000000" stroke="none" 
	d="
M73.234833,242.699814 
	C70.864929,242.515961 68.737434,241.970779 66.306564,241.232452 
	C65.617332,240.573959 65.475021,240.042770 65.786194,239.070480 
	C68.333908,237.341766 70.485008,238.169983 72.944977,239.537766 
	C73.751633,240.630371 73.812508,241.468491 73.234833,242.699814 
z"/>
<path fill="#905C6C" opacity="1.000000" stroke="none" 
	d="
M73.067215,243.161102 
	C72.972733,242.232635 72.953049,241.404160 72.906708,240.162262 
	C72.856544,239.507355 72.833015,239.265869 73.074203,238.772827 
	C74.033752,238.200455 74.748535,238.167358 75.801056,238.552155 
	C76.618614,239.338562 76.751656,240.035507 76.474899,241.125839 
	C76.103210,242.365112 77.107681,243.489639 76.028831,244.186478 
	C75.104324,244.783615 74.777817,243.408646 73.701859,243.282196 
	C73.391228,243.277054 73.142014,243.261093 73.067215,243.161102 
z"/>
<path fill="#905C6C" opacity="1.000000" stroke="none" 
	d="
M65.766739,238.499634 
	C66.036964,239.233887 66.031265,239.749756 66.014366,240.652466 
	C65.533585,240.993896 65.063995,240.948486 64.268478,240.761383 
	C63.726124,239.961029 63.509697,239.302353 63.367393,238.300934 
	C64.159561,237.844162 64.839729,237.970428 65.766739,238.499634 
z"/>
<path fill="#FEEBEC" opacity="1.000000" stroke="none" 
	d="
M409.968994,243.314880 
	C410.033630,242.263702 410.109344,241.536880 410.288910,240.459198 
	C410.856445,239.346054 411.014709,238.512421 410.952911,237.308960 
	C411.029053,235.946030 411.123627,234.905807 411.308960,233.484680 
	C412.087708,232.018387 412.014557,230.803757 411.985413,229.296783 
	C412.050629,226.979111 412.125397,224.962845 412.280579,222.523132 
	C413.585510,215.634384 413.013550,209.137085 412.540833,202.272171 
	C412.213806,199.896118 412.053406,197.892410 411.892822,195.456116 
	C411.981903,194.164764 412.034607,193.308456 411.587891,192.183167 
	C411.271881,190.540390 411.088745,189.191330 410.896118,187.432510 
	C410.908813,184.810974 411.477875,182.982590 413.216919,181.308228 
	C418.417053,176.301498 418.336395,176.115768 413.335327,170.266418 
	C414.022430,165.314865 414.904724,160.648209 415.830444,155.550751 
	C415.504089,154.904388 415.359314,154.595428 415.598267,153.912109 
	C416.103882,152.978302 416.301056,152.270477 416.078979,151.190643 
	C415.866364,149.808563 415.897430,148.737930 416.316467,147.369324 
	C417.469299,145.735321 417.780609,144.301697 417.023621,142.366638 
	C416.487244,139.015259 416.581177,136.003815 416.836548,132.636871 
	C417.072510,130.808136 418.101318,129.346054 416.775146,127.570496 
	C416.503601,127.090843 416.408691,126.890839 416.218628,126.372009 
	C416.001465,125.397400 416.004761,124.737236 416.077332,123.753845 
	C416.202332,122.535805 415.928192,121.754158 415.185120,120.767029 
	C413.844452,113.888474 410.263123,108.188934 408.276489,101.561829 
	C411.728638,98.970650 414.717102,96.442253 419.460449,96.819038 
	C424.249756,97.199493 425.908264,99.304741 426.018341,103.636627 
	C426.155090,109.017303 425.359009,114.193405 423.111328,119.124001 
	C421.613434,122.409790 421.638489,124.616409 426.214752,125.299919 
	C432.977600,126.310020 432.317993,132.470062 432.846863,137.031235 
	C433.745850,144.785049 432.383942,152.302521 427.542816,158.822586 
	C427.069336,159.460312 426.772949,160.232819 426.427124,160.958374 
	C426.376587,161.064407 426.509735,161.257980 426.658783,161.731522 
	C427.176697,161.731522 427.845398,161.887741 428.406433,161.707947 
	C436.105438,159.240723 439.045990,161.077393 440.262207,169.329773 
	C440.735931,172.544174 441.399414,175.718613 437.277313,177.630859 
	C435.239441,178.576218 435.226593,181.714706 436.751221,182.848862 
	C440.387939,185.554260 438.465088,194.385635 444.697113,192.469986 
	C450.802734,190.593201 451.210480,193.994339 452.940155,197.268250 
	C453.398895,198.136490 453.824341,199.031372 454.371277,199.842407 
	C457.507751,204.493484 456.473785,207.904495 451.073883,209.821671 
	C446.398010,211.481766 441.583435,212.749405 437.154022,215.068970 
	C435.187012,216.099030 432.075104,216.481888 433.504639,219.765900 
	C434.975555,223.145065 436.085602,227.174011 441.247925,226.817123 
	C447.377411,226.393372 451.859131,222.512909 456.817841,219.668533 
	C459.339142,218.222305 461.046326,217.607056 461.290436,221.426147 
	C461.310577,221.741074 461.635376,222.041992 461.639160,222.351608 
	C461.671112,224.977341 465.935852,226.427139 463.562683,229.773315 
	C461.236420,233.053329 457.620941,233.900299 454.182098,234.928909 
	C448.433136,236.648499 442.552185,237.976562 438.525757,242.986847 
	C437.534180,244.220734 435.296509,245.266891 436.399139,247.032669 
	C437.792480,249.263992 439.142944,246.559784 440.557465,246.387100 
	C441.952301,246.216797 444.134125,243.907578 444.639832,246.444717 
	C445.016937,248.336807 446.736145,250.730072 443.822662,253.041275 
	C437.379425,258.152527 429.747681,260.255524 422.245789,262.773590 
	C418.231567,264.120972 414.661407,266.003235 411.982361,269.787537 
	C409.023346,271.769501 406.181244,273.601532 402.277527,272.125122 
	C403.325531,267.596985 404.711212,263.216400 406.230469,258.469360 
	C406.615326,257.605652 406.899292,257.121307 406.990570,256.276367 
	C407.067352,255.571213 407.131439,255.145142 407.317322,254.418472 
	C407.660004,253.610916 407.915955,253.116302 408.006012,252.280731 
	C408.077667,251.575668 408.133179,251.147339 408.306152,250.415955 
	C408.653625,249.608765 408.910919,249.114105 408.968597,248.271729 
	C409.011078,247.564468 409.051544,247.134903 409.193298,246.396927 
	C409.821869,245.355698 410.012390,244.528641 409.968994,243.314880 
z"/>
<path fill="#FDEAEB" opacity="1.000000" stroke="none" 
	d="
M287.178711,47.469540 
	C287.058563,45.092926 288.207031,44.285767 290.127350,43.954567 
	C295.334595,43.056473 300.484131,41.763268 305.715973,41.085175 
	C311.094116,40.388126 313.647644,42.178951 314.242889,47.392731 
	C314.443909,49.153332 315.110748,50.709831 315.283936,52.394829 
	C315.771698,57.141605 319.143829,56.828869 321.781891,55.356892 
	C337.533966,46.567558 354.114380,39.524605 370.338226,31.730385 
	C373.891846,30.023151 375.901123,30.086245 376.884064,34.096542 
	C377.676941,37.331326 379.884033,38.196163 382.882172,38.007935 
	C385.610138,37.836658 388.218384,38.424473 390.429932,40.022499 
	C398.171387,45.616436 397.266388,51.251888 387.809082,55.873882 
	C385.392090,57.055115 383.146301,58.365776 381.262848,60.270504 
	C380.555511,60.985847 379.873505,61.791603 380.279968,62.900860 
	C380.718781,64.098396 381.845398,63.862877 382.806366,64.005646 
	C386.462799,64.548859 389.308960,62.011169 392.750061,61.457600 
	C399.582367,60.358475 400.526245,60.640362 402.191742,67.178459 
	C403.900665,73.886986 404.903717,74.428246 411.420380,71.210541 
	C414.664307,69.608810 416.795959,69.923416 417.989166,73.509476 
	C418.875214,76.172501 420.385223,76.436417 423.262756,76.281967 
	C431.266235,75.852417 437.485046,71.291695 444.395630,68.335304 
	C446.200684,67.563095 447.889435,66.094360 449.660950,68.418816 
	C451.400360,70.701134 450.320862,72.182823 448.653229,73.956680 
	C446.804199,75.923538 444.278625,76.257820 442.105347,77.398331 
	C432.978729,82.187843 423.840485,86.960533 414.605072,91.534523 
	C411.362732,93.140343 407.930084,94.576393 403.638184,94.167816 
	C398.508118,92.066261 395.433777,87.445969 390.003113,85.833656 
	C389.012451,85.341805 388.385223,84.946358 387.457153,84.310936 
	C378.902130,77.316101 368.831970,74.855164 358.858368,72.263901 
	C351.764038,70.420685 344.452362,69.660728 337.192444,68.783463 
	C332.945648,68.270287 329.127380,66.959770 325.550323,64.718422 
	C314.744843,57.947807 302.837524,53.695393 290.868561,49.589321 
	C289.612732,49.158493 288.286621,48.888195 287.178711,47.469540 
z"/>
<path fill="#8F6472" opacity="1.000000" stroke="none" 
	d="
M286.601746,47.108734 
	C302.224762,52.083923 316.894409,58.199429 330.820374,66.264839 
	C335.762726,69.127258 342.185028,68.230835 347.917145,69.140877 
	C362.168365,71.403427 375.955872,74.918625 388.503906,83.079964 
	C388.756866,83.589653 388.778229,83.851593 388.501221,84.362312 
	C385.463135,85.736404 382.984833,84.767639 380.522858,83.655411 
	C368.606140,78.271881 356.118713,74.925812 343.527130,73.231613 
	C353.966827,81.399017 364.612762,89.772842 372.487366,101.012878 
	C374.055969,103.251884 376.165405,104.841576 378.159332,107.101196 
	C379.204651,108.576035 379.718323,109.943100 380.760193,111.418320 
	C390.842285,125.248016 398.002075,140.237488 404.242004,155.684250 
	C405.704010,159.303406 407.449188,163.094055 405.863342,167.580414 
	C405.353516,168.740646 405.001556,169.575104 403.512115,169.091156 
	C399.355591,167.622498 400.088531,163.831909 399.228973,161.038330 
	C398.502258,158.676422 398.294403,156.161942 396.668701,153.728546 
	C396.200592,152.763779 396.036896,152.077271 395.871033,151.041534 
	C395.731567,150.053894 395.666992,149.397766 395.407745,148.453140 
	C395.198029,147.742264 395.087433,147.334824 394.889435,146.627014 
	C394.584808,145.488800 394.073242,144.817947 393.395203,143.856750 
	C388.541779,134.002853 383.875824,124.427116 376.756317,115.912842 
	C375.529205,113.925262 374.563263,112.170792 372.845459,110.546310 
	C372.052979,109.585045 371.679535,108.763687 371.156067,107.638031 
	C370.622803,106.206291 369.916382,105.341690 368.583069,104.524429 
	C358.115387,94.211220 347.559357,84.587685 335.848206,76.261353 
	C332.154388,73.635162 328.402008,72.286613 323.832550,72.296486 
	C306.028046,72.334976 288.217834,71.999725 270.527252,74.605843 
	C269.047699,74.823799 267.552490,75.102592 265.803162,74.070389 
	C264.908203,73.149452 264.568756,72.389076 264.494537,71.104309 
	C266.746185,67.317902 270.287201,67.879799 273.955566,67.624023 
	C275.909637,67.693710 277.452423,67.658226 279.329224,67.096230 
	C280.210297,66.917267 280.719269,66.850044 281.615265,66.778793 
	C282.766418,66.710007 283.534821,66.726837 284.687622,66.705421 
	C285.845947,66.673950 286.619873,66.694847 287.786072,66.652374 
	C289.522919,66.689224 290.830475,66.492554 292.512207,65.967758 
	C298.083740,65.215073 303.271301,65.649590 308.868042,65.549820 
	C310.382111,65.633202 311.477173,65.603729 312.962524,65.637070 
	C313.861359,65.652756 314.368713,65.664642 315.240723,65.684616 
	C317.043610,65.795006 318.497772,65.682388 320.042389,66.012978 
	C318.887115,65.027222 317.489899,64.723244 315.976807,63.893776 
	C311.462921,61.550560 307.310089,59.262051 302.339020,57.943207 
	C300.623138,57.329296 299.256561,56.812572 297.534790,56.183266 
	C293.688629,54.594238 290.013733,53.784134 285.933105,52.986546 
	C282.447418,51.217194 278.925415,51.552906 275.238983,50.709198 
	C268.356232,46.963978 261.027924,47.002480 254.010468,46.529007 
	C222.107346,44.376450 191.844437,50.627007 163.364777,65.313431 
	C155.048508,69.601974 147.522568,75.070190 139.942734,80.475937 
	C138.059723,81.818855 136.311966,83.432083 133.451767,83.690575 
	C132.483963,83.471069 132.058624,83.133041 131.821274,82.219467 
	C157.437210,60.020695 186.952255,47.304592 220.212784,43.034115 
	C242.486481,40.174290 264.426270,42.192669 286.601746,47.108734 
z"/>
<path fill="#8C5F6E" opacity="1.000000" stroke="none" 
	d="
M264.536285,70.341965 
	C265.183350,71.200142 265.461060,71.828171 265.858521,72.779327 
	C265.257446,74.127792 264.215759,74.556465 262.678680,74.693329 
	C261.257690,74.519783 260.175293,74.327057 258.793640,74.884689 
	C255.675095,76.092606 252.688950,76.262840 249.433640,76.745544 
	C248.070099,76.710899 247.049011,76.729042 245.884064,77.540543 
	C244.780197,77.991692 243.930756,78.022758 242.755646,77.895271 
	C241.439178,77.620682 240.436752,77.389969 239.276718,78.335098 
	C238.415512,78.758385 237.793549,78.857887 236.838547,78.825912 
	C235.720001,78.653046 234.914230,78.514961 233.792221,78.778336 
	C232.867645,78.995407 232.236664,79.071587 231.281738,79.167580 
	C229.632553,79.228249 228.368774,79.454269 227.020386,80.539185 
	C211.962082,85.351608 196.902206,89.053413 182.725250,95.440926 
	C159.769760,105.783676 137.610321,117.552284 116.652802,131.556671 
	C106.682564,138.219070 97.272644,145.644821 87.458122,152.513229 
	C85.537804,153.857101 84.626869,155.709427 83.913681,158.171707 
	C83.422432,159.353241 82.727715,160.007874 82.307838,161.201981 
	C82.101425,161.966278 81.979675,162.403748 81.758896,163.172577 
	C80.314148,167.220245 79.098648,170.974457 78.324989,175.206573 
	C78.216034,175.984009 78.132866,176.420731 77.959419,177.167755 
	C77.662895,178.287918 77.517540,179.100693 77.747574,180.250610 
	C77.893265,181.207047 77.856308,181.845139 77.583168,182.778931 
	C76.678604,184.126480 76.145020,185.264771 76.148415,186.943848 
	C76.077835,187.737534 76.008453,188.192551 75.845810,188.994751 
	C75.286186,190.759827 75.295120,192.226837 75.325195,194.082153 
	C75.362686,195.809509 75.257133,197.140686 74.991074,198.874573 
	C73.957474,202.600433 74.504883,205.996323 74.404160,209.792908 
	C74.038216,215.871658 75.306038,221.478439 74.570511,227.524490 
	C73.863174,228.341690 73.302803,228.548416 72.219124,228.426056 
	C68.868111,226.001663 69.703407,222.704544 69.531067,219.696930 
	C69.428703,217.910400 69.496948,216.112946 69.545120,213.880280 
	C69.561729,210.879608 69.506042,208.317856 69.836807,205.359802 
	C70.126068,203.677307 70.653679,202.419617 70.059814,200.706085 
	C70.231743,187.083252 72.334694,174.193497 77.314651,161.494171 
	C77.918625,160.120514 77.863998,159.226868 76.460823,158.459503 
	C76.114403,158.081863 76.020744,157.892670 75.764771,157.431580 
	C76.617142,154.973221 78.751778,153.893341 80.691574,152.159149 
	C82.951332,150.219101 83.236656,147.543640 84.731918,145.130676 
	C85.032944,144.429581 85.134163,144.007812 85.442863,143.331909 
	C86.102623,142.458435 86.749519,142.335541 87.792427,142.430511 
	C91.720322,143.252319 93.191132,140.237701 95.593704,138.177032 
	C119.871979,119.910103 145.673264,104.923058 172.967224,92.438095 
	C186.912735,86.059059 201.250641,80.863167 216.127777,77.139389 
	C219.035370,76.411606 221.967072,75.855591 225.280411,75.300354 
	C226.115463,75.100792 226.594864,75.006439 227.434387,74.872276 
	C228.973236,74.694450 230.149261,74.541519 231.627625,74.065094 
	C233.614853,73.615669 235.242371,73.202400 237.218033,72.657646 
	C238.056076,72.417686 238.540863,72.287827 239.403214,72.070236 
	C243.148697,71.360970 246.626709,71.975136 250.365631,70.990219 
	C252.094742,70.638336 253.470703,70.590714 255.181610,70.040604 
	C258.459534,69.537453 261.324463,69.276505 264.536285,70.341965 
z"/>
<path fill="#F9E5E7" opacity="1.000000" stroke="none" 
	d="
M70.893280,203.745880 
	C70.770721,206.754715 70.680565,209.460785 70.502426,212.607971 
	C69.081085,214.488724 67.155602,214.613007 65.460144,215.169724 
	C60.314186,216.859467 57.973892,215.581406 57.109337,210.137329 
	C56.695366,207.530563 55.519215,206.512360 53.201859,205.802277 
	C49.416752,204.642410 45.610950,203.449097 41.975174,201.047913 
	C42.696205,193.074203 48.269852,188.093369 52.513725,182.362091 
	C53.775402,180.658218 55.514263,179.316818 56.992733,177.294327 
	C58.093555,175.915192 59.009209,174.844940 60.238358,173.587280 
	C63.475243,170.846115 65.599457,167.455399 69.162308,165.084442 
	C69.838341,164.803955 70.201401,164.666748 70.761322,164.530731 
	C72.254631,162.304260 74.098335,160.598877 76.470535,158.954285 
	C77.550911,158.553421 78.141869,158.856613 78.797722,159.703217 
	C74.152199,172.979477 71.888321,186.429932 70.974586,200.574524 
	C70.989853,201.820801 70.994019,202.633484 70.893280,203.745880 
z"/>
<path fill="#94717E" opacity="1.000000" stroke="none" 
	d="
M88.298027,142.898254 
	C87.377831,143.013458 86.800667,143.022049 85.936920,143.054230 
	C88.414658,133.553284 93.917412,125.390999 99.359604,117.377296 
	C108.320175,104.182762 118.534157,91.950981 131.569244,81.938538 
	C132.195511,82.183815 132.508575,82.563866 133.151138,83.119598 
	C133.514328,85.359093 132.207230,86.622459 130.799011,87.845627 
	C120.562202,96.737152 111.922050,107.045891 103.834259,118.316849 
	C98.963692,124.979065 95.413689,132.024460 91.426544,138.805405 
	C90.601158,140.209122 90.083206,141.821198 88.298027,142.898254 
z"/>
<path fill="#946976" opacity="1.000000" stroke="none" 
	d="
M389.926025,84.486679 
	C395.153778,86.452324 398.937256,90.141602 402.934662,94.035187 
	C404.348785,96.689774 405.892731,98.900665 408.129028,100.977341 
	C411.896912,107.117111 414.746765,113.332062 416.283936,120.512718 
	C416.611725,121.400169 416.872681,121.896660 416.925293,122.737923 
	C416.960815,123.761986 416.998016,124.508171 416.991730,125.625504 
	C416.331207,126.555847 415.605042,126.774147 414.414795,126.568878 
	C410.550598,122.034828 411.105621,116.052071 408.106842,111.355782 
	C406.531738,108.889046 405.504730,106.009605 403.726990,103.169968 
	C402.805481,101.388901 401.935883,100.013863 400.443420,98.656128 
	C396.983948,94.194893 391.764648,91.874275 389.311127,86.531052 
	C389.257355,85.649132 389.382538,85.168900 389.926025,84.486679 
z"/>
<path fill="#8C5F6E" opacity="1.000000" stroke="none" 
	d="
M69.245560,164.494110 
	C68.060440,168.865173 64.318169,170.783646 61.562653,173.961151 
	C60.315300,174.499771 59.342941,174.810196 57.883820,174.178650 
	C57.658245,173.478195 57.842930,173.085922 58.095581,172.375488 
	C61.868786,169.506210 64.096291,164.953049 69.245560,164.494110 
z"/>
<path fill="#8C5F6E" opacity="1.000000" stroke="none" 
	d="
M77.291199,158.848358 
	C75.241997,160.840698 73.426880,162.551956 71.284981,164.397552 
	C68.684204,163.593185 69.669014,162.174881 70.652451,161.107361 
	C71.973961,159.672852 73.560760,158.482742 75.318069,157.173706 
	C75.856247,157.278442 76.110046,157.397186 76.696724,157.772552 
	C77.194839,158.208557 77.360062,158.387924 77.291199,158.848358 
z"/>
<path fill="#94717E" opacity="1.000000" stroke="none" 
	d="
M84.657608,145.029694 
	C84.965225,147.710739 84.014999,150.118698 81.347488,151.949402 
	C82.126175,149.735748 83.254837,147.471893 84.657608,145.029694 
z"/>
<path fill="#8C5F6E" opacity="1.000000" stroke="none" 
	d="
M58.193092,176.697617 
	C52.789452,184.557510 46.227749,191.287811 42.358406,200.324921 
	C41.800671,201.368820 41.366982,202.074738 40.535030,202.854980 
	C39.838886,202.704987 39.390430,202.367432 38.716358,201.659027 
	C42.349499,191.333511 48.716721,183.073669 56.261116,175.209412 
	C57.161179,175.272049 57.647190,175.686279 58.193092,176.697617 
z"/>
<path fill="#946B78" opacity="1.000000" stroke="none" 
	d="
M58.645519,177.009872 
	C57.907921,176.725693 57.437584,176.303635 56.758579,175.443176 
	C56.737049,174.676270 56.924191,174.347794 57.292442,173.944885 
	C58.425728,173.932648 59.377892,173.994827 60.805061,174.091705 
	C60.490971,175.041595 59.701878,175.956802 58.645519,177.009872 
z"/>
<path fill="#FDD2D9" opacity="1.000000" stroke="none" 
	d="
M232.236053,378.752930 
	C216.276230,378.163330 200.992599,375.099640 186.096405,369.961517 
	C183.348663,369.013702 181.686264,367.500641 180.461060,364.871063 
	C173.227982,349.347229 169.627380,332.718536 165.406662,316.273590 
	C162.796783,306.104828 160.237732,295.923737 154.751678,286.783264 
	C147.299881,274.367615 136.257751,265.988647 123.806580,259.226410 
	C113.231163,253.482880 102.011093,249.241013 90.313438,245.199921 
	C87.211052,238.777664 88.950523,232.249542 88.798790,225.849487 
	C88.593842,217.205078 93.153755,211.129898 100.042053,205.934067 
	C111.718910,196.780258 124.111015,189.734711 137.686646,184.818634 
	C147.943573,181.104340 158.122467,179.321182 168.672012,184.264267 
	C174.262405,186.883682 180.463821,185.828568 186.410889,185.164169 
	C193.675583,184.352570 200.876221,183.013092 208.538055,182.516174 
	C210.007492,183.773926 209.690414,185.133865 209.554413,186.443283 
	C208.886215,192.876923 209.181442,199.074280 213.198303,204.607697 
	C215.576645,207.884018 213.068085,209.308228 210.588394,210.673065 
	C204.747437,213.887909 199.890427,218.124039 197.489410,224.524094 
	C192.845551,236.902527 197.441742,249.145645 209.276154,255.597900 
	C220.925613,261.949371 233.502502,263.610107 246.562729,262.197998 
	C249.040527,261.930084 251.475983,261.282288 254.360870,261.444214 
	C257.115692,264.096619 255.153351,266.217529 253.934921,268.258087 
	C241.397919,289.254547 228.838470,310.236877 216.422577,331.305969 
	C213.635361,336.035675 213.877121,339.591980 216.499512,344.130096 
	C221.739960,353.198730 226.667847,362.460266 231.297882,371.866516 
	C232.310669,373.924042 233.660629,375.985931 232.236053,378.752930 
z"/>
<path fill="#FEC1CC" opacity="1.000000" stroke="none" 
	d="
M232.465546,379.129333 
	C231.566986,371.558624 226.447021,366.051819 223.613129,359.592010 
	C220.831268,353.250732 217.133026,347.292755 213.592728,341.311096 
	C211.925369,338.493927 212.117889,336.172913 213.741394,333.463776 
	C219.883255,323.215118 225.829758,312.849548 231.950500,302.588043 
	C239.230499,290.382996 246.630386,278.249481 253.923416,266.052155 
	C254.497406,265.092133 254.641647,263.875214 254.989319,262.405701 
	C257.789032,259.316925 261.706207,259.418121 265.062500,258.129303 
	C273.581909,254.857864 280.738892,249.646637 287.714661,243.428192 
	C289.409698,243.213089 290.724152,242.982910 292.066467,243.077835 
	C298.120575,243.505905 298.915527,244.634171 297.086243,250.249161 
	C295.381378,255.482056 297.383514,258.564362 302.990723,258.952271 
	C305.330444,259.114166 307.236298,259.838654 308.615662,261.668549 
	C310.839111,264.618256 313.847229,264.810394 317.146454,264.451599 
	C326.903351,263.390533 336.483429,261.149292 346.622925,259.988983 
	C352.554626,258.397461 358.106720,256.979156 362.811096,262.686646 
	C362.580872,264.057312 362.108459,265.080872 361.536682,266.429230 
	C358.623932,272.794403 354.730988,278.199036 351.167938,283.776978 
	C336.495483,306.746735 321.227112,329.310791 304.073975,350.532288 
	C301.583679,353.613251 299.321564,356.898743 296.112915,359.811981 
	C293.012238,362.860687 290.230225,365.746704 287.146790,368.789154 
	C281.398254,371.098114 276.032593,373.472992 270.457001,375.273651 
	C269.018860,375.738098 267.710144,376.246704 266.281433,377.439667 
	C255.036179,379.719421 243.972336,379.266205 232.465546,379.129333 
z"/>
<path fill="#FCD1D8" opacity="1.000000" stroke="none" 
	d="
M121.620972,329.473694 
	C121.271164,328.922455 121.169617,328.609589 121.027466,328.056061 
	C119.638901,323.929169 120.892952,320.010406 120.894081,315.700104 
	C122.525909,306.609222 121.315186,298.097076 119.286545,289.663605 
	C118.428139,286.095062 117.466637,282.746704 119.149208,279.010590 
	C120.474182,276.068512 118.482063,273.451569 114.761620,272.711182 
	C111.316177,272.025574 107.823051,272.341888 104.347496,272.829285 
	C98.250122,273.684296 95.839508,272.291077 93.677505,266.533264 
	C92.570030,263.583801 91.848061,260.490631 90.248207,257.267822 
	C89.626244,254.519165 89.354492,252.205338 91.648849,250.077179 
	C109.201584,255.123184 125.434593,262.244232 139.354828,273.809235 
	C150.455826,283.032013 156.082901,295.580139 159.697479,309.139038 
	C164.620804,327.607269 168.337173,346.426514 176.000595,364.082245 
	C176.163483,364.457489 175.942871,364.999268 175.866730,365.846527 
	C155.039948,357.705414 137.846481,344.637878 121.620972,329.473694 
z"/>
<path fill="#FBD0D7" opacity="1.000000" stroke="none" 
	d="
M383.183105,299.723694 
	C378.634552,309.336823 371.761078,317.260010 364.883423,325.580994 
	C356.567566,333.598389 348.443268,341.363098 339.210266,347.904327 
	C325.975342,357.280853 311.822571,364.795593 296.530426,370.188873 
	C294.537262,370.891846 292.614777,371.795288 289.408020,373.124786 
	C291.319519,367.877350 295.560425,365.492310 297.974335,361.506714 
	C298.452393,359.941925 299.093323,358.909576 300.655823,358.173340 
	C304.898590,357.063416 308.346222,355.051392 311.818237,353.149811 
	C316.769897,350.437927 317.030548,349.634949 315.569153,344.024261 
	C315.276337,342.900116 314.962372,341.787994 315.108398,340.248901 
	C315.454010,338.902405 316.073761,338.166504 317.202881,337.404785 
	C320.316345,336.059631 324.773041,336.447571 323.151978,330.814148 
	C323.382416,326.871460 325.008728,324.077423 328.418762,322.006195 
	C332.245880,321.610931 335.016296,319.666779 337.877472,318.033173 
	C350.574066,310.783752 363.742065,304.589844 377.610535,299.914429 
	C379.351715,299.327423 381.026581,298.538757 383.183105,299.723694 
z"/>
<path fill="#F9CED7" opacity="1.000000" stroke="none" 
	d="
M271.739929,384.507782 
	C267.578278,387.814575 263.648682,390.842712 259.405945,393.998047 
	C256.804199,393.464050 255.955978,391.067932 253.654739,390.065979 
	C248.532578,387.835754 243.916580,387.912354 239.116898,390.619446 
	C237.235031,391.680878 235.051086,391.832581 232.857361,391.940002 
	C229.469666,392.105896 226.369110,393.245544 223.989075,395.824036 
	C220.706528,399.380249 216.438751,401.669189 212.388565,404.783752 
	C211.881790,404.928375 211.705582,404.950897 211.263443,404.990784 
	C198.651581,398.031738 191.024429,387.109863 184.343033,373.346710 
	C214.715958,383.773315 244.478882,385.501282 274.734802,379.786804 
	C274.869293,382.464874 272.899933,382.974365 271.739929,384.507782 
z"/>
<path fill="#FCFBFB" opacity="1.000000" stroke="none" 
	d="
M101.065002,205.614258 
	C100.988144,208.044373 99.377823,208.703201 97.994896,209.592773 
	C91.152740,213.993942 90.267731,221.016922 90.017433,228.205154 
	C89.833427,233.489548 89.989540,238.785767 89.990875,244.546570 
	C86.936508,244.302505 83.885361,243.588608 80.437057,242.857849 
	C79.015900,242.435532 77.991898,242.030090 76.642899,241.540726 
	C76.087578,240.853653 75.857246,240.250488 75.468506,239.365875 
	C74.897118,238.096924 73.790993,237.691330 73.180466,236.365570 
	C72.576950,233.524231 72.282318,231.061905 73.651001,228.332870 
	C73.949120,222.486694 72.805580,217.016678 73.365265,211.079926 
	C73.235397,210.024689 73.485519,209.553116 74.447838,209.079285 
	C81.058701,207.910309 87.225349,206.781158 93.160362,204.549728 
	C95.775787,203.566376 98.606018,202.833817 101.065002,205.614258 
z"/>
<path fill="#995D6E" opacity="1.000000" stroke="none" 
	d="
M329.045349,322.703461 
	C326.252289,324.732880 325.044525,327.520569 323.325073,330.365601 
	C322.265961,333.493469 320.403687,335.619141 317.991608,337.690033 
	C317.176727,338.345062 316.669678,338.882843 316.065857,339.681824 
	C312.597107,347.280487 307.261963,353.093353 301.206543,358.767090 
	C300.158417,359.612427 299.403900,360.265625 298.386108,361.064941 
	C297.581726,360.820496 297.040649,360.429901 296.146912,360.006989 
	C303.626312,349.675232 311.562012,339.452637 319.268036,329.059753 
	C333.522919,309.834686 346.424225,289.696106 359.123901,269.426544 
	C359.648041,268.589966 360.302368,267.834991 361.166656,266.898010 
	C362.064941,266.839478 362.692657,266.924896 363.791229,267.055481 
	C364.744934,267.739685 364.848450,268.464691 364.639526,269.592712 
	C354.985657,286.553528 344.246796,302.387360 333.369598,318.131989 
	C332.230469,319.780853 331.074707,321.406403 329.045349,322.703461 
z"/>
<path fill="#F9F5F6" opacity="1.000000" stroke="none" 
	d="
M91.795242,249.636719 
	C90.794769,251.835526 91.001457,254.015198 91.065086,256.580963 
	C89.394058,260.816620 86.155067,262.155060 81.932945,262.334534 
	C79.082344,257.555878 78.612709,252.334946 77.168739,247.406143 
	C76.675438,245.722351 77.306053,244.828171 79.567352,245.103088 
	C83.823410,246.535629 87.683189,247.961594 91.795242,249.636719 
z"/>
<path fill="#F5BBC8" opacity="1.000000" stroke="none" 
	d="
M266.370850,377.696106 
	C266.589294,373.600220 270.321899,374.196228 272.847870,373.284485 
	C277.188660,371.717682 280.995697,368.420258 286.436890,368.962463 
	C283.919342,374.834290 278.266113,375.719238 272.654114,376.686310 
	C270.687592,377.025177 268.725128,377.387848 266.370850,377.696106 
z"/>
<path fill="#FDD2D9" opacity="1.000000" stroke="none" 
	d="
M347.081421,260.631378 
	C339.107330,262.315399 331.222778,263.683411 323.327179,264.984131 
	C320.730804,265.411865 318.111115,265.719421 315.492249,265.984344 
	C312.192261,266.318146 309.241913,265.985626 307.581360,262.394714 
	C306.777222,260.655731 305.186005,259.855377 303.042236,260.115326 
	C296.936554,260.855835 293.432526,256.205475 295.353119,250.268845 
	C295.890747,248.607010 298.618286,246.941422 297.152527,245.686264 
	C295.662903,244.410660 292.858795,244.584732 290.606934,244.333542 
	C289.876740,244.252090 289.074524,244.945465 288.089264,244.025391 
	C287.449860,241.630783 289.095795,240.457382 290.036102,238.976364 
	C291.955780,235.952682 292.076691,235.510696 291.534149,231.631485 
	C286.644501,236.881805 284.037598,243.788635 277.002350,246.660431 
	C276.147552,246.704117 275.654358,246.634857 275.158844,246.583908 
	C266.856201,245.730576 266.005768,246.246170 262.723816,254.331757 
	C258.523193,257.799896 253.564789,258.186218 248.883270,258.818939 
	C237.179276,260.400787 225.515945,259.706543 214.563004,254.964523 
	C205.494751,251.038467 199.042313,244.595505 198.713181,233.909027 
	C198.442276,225.112701 204.623932,216.224380 213.329361,212.427139 
	C217.011444,210.821045 220.558640,210.603256 224.441864,212.032669 
	C231.025436,214.456055 237.831116,216.306381 244.944122,215.339630 
	C248.457062,214.862183 252.690460,214.711792 253.519363,210.020996 
	C254.027771,207.144028 250.227249,204.920197 244.718170,204.446609 
	C238.690598,203.928467 232.760147,204.901337 226.821350,205.628418 
	C217.323502,206.791214 210.067337,198.910080 212.111328,189.371780 
	C213.111862,184.702850 215.186386,180.568436 219.855988,177.802002 
	C226.678070,176.950958 232.733032,174.797745 239.057159,172.303421 
	C248.581039,168.796082 263.397125,174.248367 270.333984,183.396591 
	C271.428070,184.839462 272.262238,188.235367 274.182037,186.928452 
	C276.223267,185.538895 273.852203,183.044235 272.655487,181.432831 
	C269.857819,177.665695 266.574707,174.360611 262.249207,172.281906 
	C260.759888,171.566208 259.127869,171.013947 258.331299,168.933090 
	C258.413818,165.815659 260.500214,165.141617 262.620667,164.496002 
	C276.623047,160.232559 290.766052,156.497818 305.060272,153.353592 
	C308.183563,152.666565 311.052032,151.577637 313.846649,149.992020 
	C319.119629,147.000183 324.542542,146.659363 329.944519,149.906586 
	C332.225311,151.277588 334.637207,152.422226 337.050568,153.542221 
	C344.624115,157.057053 352.376373,158.065262 360.192352,154.512695 
	C363.380005,153.063858 365.733459,153.565399 368.304443,155.856339 
	C373.434235,160.427353 375.656342,160.610229 381.705597,157.254700 
	C385.920593,154.916641 390.574219,153.410751 394.809998,150.271484 
	C395.400665,149.971024 395.650543,149.877823 396.290283,149.874268 
	C396.940125,150.630020 397.200134,151.296127 397.495605,152.320312 
	C395.634125,155.369354 395.099457,157.502716 398.075195,160.316330 
	C401.314209,163.378922 400.297150,166.453629 396.221619,168.694305 
	C394.316803,169.741547 392.154816,170.233475 390.263519,171.269852 
	C388.837677,172.051163 385.751556,171.994476 386.678162,174.324219 
	C387.397034,176.131760 389.609131,174.366165 391.053406,173.799835 
	C393.220978,172.949890 395.402588,172.125992 397.477417,171.035950 
	C399.112946,170.176727 400.851776,169.509750 402.961151,170.822845 
	C407.051147,177.940735 404.720795,184.420822 401.631104,191.158051 
	C399.033569,191.567871 396.848114,192.326416 394.739197,193.328217 
	C393.499420,193.917145 392.275391,194.673553 392.487640,196.269440 
	C393.035187,200.386063 390.129761,201.741867 387.198425,203.101974 
	C380.264648,206.319138 373.214630,209.289886 366.456421,212.878494 
	C365.188019,213.552002 363.213531,213.802094 363.375763,215.656113 
	C363.532440,217.446609 365.419281,216.883347 366.624756,217.195374 
	C370.498749,218.198227 371.363373,221.639069 372.347992,224.733521 
	C373.309479,227.755341 370.809570,229.211105 368.748688,230.598328 
	C362.820465,234.588806 356.495789,237.999939 350.975372,242.582260 
	C348.303772,244.799896 345.454895,246.960464 344.491150,250.576736 
	C343.494141,254.317825 345.054626,257.387329 347.081421,260.631378 
z"/>
<path fill="#FCC0CB" opacity="1.000000" stroke="none" 
	d="
M329.143890,322.922485 
	C336.073242,311.791870 343.462219,300.731506 350.732178,289.593475 
	C354.913055,283.188202 358.901215,276.657166 363.265015,270.034668 
	C365.699097,268.627197 367.843658,269.398529 369.804260,270.189301 
	C377.407349,273.255890 385.022064,276.076965 393.465790,274.849670 
	C394.110168,274.756012 394.756165,275.122284 395.656372,275.711090 
	C392.986786,284.366211 388.910583,292.175171 383.702301,299.726074 
	C376.615753,300.818542 370.370758,303.756897 364.125671,306.422211 
	C353.219147,311.076996 342.559875,316.303802 332.460236,322.593201 
	C331.707214,323.062164 330.532349,322.853668 329.143890,322.922485 
z"/>
<path fill="#FBE5E8" opacity="1.000000" stroke="none" 
	d="
M367.948425,263.234344 
	C375.595673,248.716873 384.339447,234.970474 391.922333,220.547409 
	C397.251709,210.410690 401.753632,199.898499 406.939697,189.548157 
	C411.153107,217.432510 408.470123,244.532272 397.903137,271.077423 
	C393.691406,272.103058 391.804688,270.301941 391.203796,266.450775 
	C390.485901,261.849915 389.497406,261.258514 384.833008,261.974670 
	C381.048309,262.555756 377.403168,263.846008 373.583466,264.228333 
	C371.760834,264.410828 369.918060,264.462769 367.948425,263.234344 
z"/>
<path fill="#FDE7E9" opacity="1.000000" stroke="none" 
	d="
M347.406067,260.927979 
	C341.495209,256.221344 341.294220,250.418106 346.422974,245.072861 
	C352.600769,238.634308 360.601013,234.747681 367.794464,229.729202 
	C369.521637,228.524261 372.969177,227.814743 371.194916,224.775253 
	C369.716431,222.242493 370.245880,217.007492 364.628693,218.579224 
	C362.806763,219.088989 361.813599,217.620346 361.295105,216.239044 
	C360.623901,214.450943 361.925446,213.510406 363.386383,212.835236 
	C371.323456,209.167038 379.288330,205.557098 387.180573,201.794800 
	C389.677399,200.604523 393.527588,199.846649 390.452209,195.539902 
	C389.876892,194.734207 390.535065,193.747131 391.302032,193.501602 
	C394.471344,192.487137 397.139832,189.602127 401.160767,191.143311 
	C395.899048,206.477036 388.183075,220.424164 380.332336,234.282150 
	C374.934326,243.810593 369.116211,253.101013 363.269531,262.765808 
	C358.312561,259.919708 353.284424,258.841766 347.406067,260.927979 
z"/>
<path fill="#FBE5E8" opacity="1.000000" stroke="none" 
	d="
M403.900635,101.748917 
	C409.498627,108.840446 412.135071,116.832848 413.814850,125.632568 
	C414.718109,126.898926 415.319366,127.922165 415.339355,129.118942 
	C415.480103,137.540970 416.500519,146.030167 413.252991,154.612518 
	C411.707367,159.885483 410.457214,164.778275 409.155579,170.063690 
	C408.505493,170.599548 407.980072,170.442200 407.240997,169.967377 
	C406.693359,169.352524 406.412201,168.838043 405.918091,168.114594 
	C402.762024,150.856277 394.862610,135.881851 386.101440,121.285316 
	C384.312225,118.304375 382.187378,115.524864 380.088440,112.335220 
	C387.248474,107.244354 394.949371,103.403053 403.900635,101.748917 
z"/>
<path fill="#FCD2D9" opacity="1.000000" stroke="none" 
	d="
M367.433380,263.134155 
	C373.756195,263.759430 379.406616,261.526306 385.202118,260.394653 
	C390.800293,259.301514 392.937347,260.932373 392.582428,266.718597 
	C392.382202,269.983398 395.037628,270.036346 397.255280,271.216553 
	C397.229645,272.682404 396.800232,274.039490 396.165833,275.694397 
	C384.571503,278.564667 374.717804,273.050568 363.975281,269.942261 
	C363.698395,269.180481 363.842896,268.474335 364.124756,267.434418 
	C366.062378,266.483704 366.228333,264.596405 367.433380,263.134155 
z"/>
<path fill="#FDE7E9" opacity="1.000000" stroke="none" 
	d="
M403.253357,170.691711 
	C398.620911,170.478241 395.428345,174.054398 391.370361,175.131332 
	C390.114136,175.464722 388.939636,176.105774 387.727478,176.605438 
	C385.790436,177.403915 385.035400,176.148697 384.397308,174.688980 
	C383.691345,173.073883 384.527832,172.160217 385.897095,171.597748 
	C389.095184,170.283997 392.388458,169.179810 395.511292,167.710480 
	C399.983215,165.606354 400.484558,162.766113 396.325806,160.076370 
	C391.456421,156.927002 393.844879,155.160736 397.180023,152.851471 
	C400.557404,157.485779 401.004669,163.161591 403.010925,168.672516 
	C403.227142,169.427261 403.249939,169.887039 403.253357,170.691711 
z"/>
<path fill="#9D707F" opacity="1.000000" stroke="none" 
	d="
M413.442108,155.008499 
	C413.984344,145.666595 414.668304,136.329422 413.892426,126.476654 
	C414.678925,126.005211 415.435822,126.001289 416.570435,125.997009 
	C417.039307,126.138451 417.130432,126.280235 417.329224,126.650757 
	C417.978607,127.966248 418.007965,129.132523 417.955933,130.659866 
	C417.935852,134.696411 417.929108,138.382462 417.928345,142.528290 
	C417.971375,144.157349 418.078857,145.331299 417.573303,146.799988 
	C417.287476,148.475937 417.131165,149.825058 416.969788,151.583191 
	C416.971069,152.549561 416.894958,153.092651 416.601013,153.875671 
	C416.392548,154.373230 416.270905,154.609421 416.013336,154.983704 
	C415.224792,155.088074 414.575714,155.056183 413.442108,155.008499 
z"/>
<path fill="#E7C3CB" opacity="1.000000" stroke="none" 
	d="
M412.941132,170.225922 
	C419.853851,173.570343 420.369080,176.557312 414.873322,181.461563 
	C413.223846,182.933517 411.799591,184.344574 411.170044,186.805450 
	C408.268677,181.142471 410.917694,175.852615 412.941132,170.225922 
z"/>
<path fill="#E7C3CB" opacity="1.000000" stroke="none" 
	d="
M412.255310,202.362610 
	C413.206055,202.209381 413.920807,202.752731 413.867676,203.666626 
	C413.516907,209.703461 415.031464,215.824829 412.711548,221.943359 
	C412.286163,215.674927 412.211304,209.250153 412.255310,202.362610 
z"/>
<path fill="#E7C3CB" opacity="1.000000" stroke="none" 
	d="
M411.736359,229.263092 
	C413.362030,230.282944 413.328491,231.578308 411.698425,232.992279 
	C410.998566,231.901001 411.082672,230.711426 411.736359,229.263092 
z"/>
<path fill="#E7C3CB" opacity="1.000000" stroke="none" 
	d="
M409.717804,243.224701 
	C411.220306,244.001129 411.237762,244.979965 409.588806,246.006134 
	C409.355621,245.211960 409.416656,244.335419 409.717804,243.224701 
z"/>
<path fill="#E7C3CB" opacity="1.000000" stroke="none" 
	d="
M410.698975,237.226837 
	C412.221405,237.950577 412.216980,238.926743 410.677063,240.011353 
	C410.416351,239.228027 410.439911,238.347733 410.698975,237.226837 
z"/>
<path fill="#E7C3CB" opacity="1.000000" stroke="none" 
	d="
M411.336517,192.209991 
	C412.914917,192.434341 413.281891,193.351852 412.151489,194.857559 
	C411.102570,194.345505 411.153717,193.439804 411.336517,192.209991 
z"/>
<path fill="#9D707F" opacity="1.000000" stroke="none" 
	d="
M406.992676,170.175995 
	C407.697540,169.223618 408.085175,170.117920 408.873657,170.343689 
	C408.427765,172.031509 407.734558,172.371353 406.992676,170.175995 
z"/>
<path fill="#E7C3CB" opacity="1.000000" stroke="none" 
	d="
M406.767975,256.186005 
	C408.039124,256.721954 407.855377,257.368805 406.620850,258.033997 
	C406.420258,257.526886 406.476471,256.950836 406.767975,256.186005 
z"/>
<path fill="#E7C3CB" opacity="1.000000" stroke="none" 
	d="
M407.792328,252.197083 
	C409.026062,252.702805 408.866852,253.350784 407.687775,254.041473 
	C407.480225,253.541977 407.521362,252.966080 407.792328,252.197083 
z"/>
<path fill="#E7C3CB" opacity="1.000000" stroke="none" 
	d="
M408.750061,248.194275 
	C410.001434,248.672348 409.894775,249.326447 408.676147,250.037582 
	C408.458954,249.540100 408.494263,248.967316 408.750061,248.194275 
z"/>
<path fill="#FDE8EA" opacity="1.000000" stroke="none" 
	d="
M81.677170,262.530945 
	C84.830597,261.091766 87.903412,259.679352 90.754295,257.138367 
	C93.487511,259.332458 93.732613,262.603424 94.733063,265.548767 
	C96.869560,271.838501 98.164467,272.291962 104.542732,271.431793 
	C109.168983,270.807892 114.109077,269.569794 118.488998,272.723755 
	C121.354340,274.787018 123.122688,277.120453 120.120544,280.409760 
	C118.642082,282.029602 119.123756,283.665558 119.655754,285.511932 
	C122.377052,294.956665 123.830727,304.552277 122.335968,314.710175 
	C116.822929,315.208801 112.313919,312.476227 107.029739,311.430176 
	C95.869034,296.529877 87.571838,280.352661 81.677170,262.530945 
z"/>
<path fill="#FCFBFB" opacity="1.000000" stroke="none" 
	d="
M106.774841,311.737732 
	C111.317627,309.318115 114.877419,313.429596 119.134811,313.646423 
	C119.894089,313.685089 120.621758,314.344635 121.705444,314.863953 
	C121.674278,319.007233 122.790443,323.123047 121.047943,327.411011 
	C114.855530,323.850464 111.089317,317.753113 106.774841,311.737732 
z"/>
<path fill="#FDFBFC" opacity="1.000000" stroke="none" 
	d="
M212.345703,405.143921 
	C217.163254,399.400208 222.373978,393.457764 229.642685,391.466400 
	C235.394257,389.890686 241.190048,388.661896 246.723679,386.308075 
	C248.624313,385.499603 257.535339,391.111023 258.932373,393.787231 
	C245.218674,404.532013 230.696228,412.263031 212.345703,405.143921 
z"/>
<path fill="#FDFCFC" opacity="1.000000" stroke="none" 
	d="
M40.237904,203.450073 
	C40.785454,202.320343 41.283573,201.598160 42.025841,200.782837 
	C47.095020,201.691040 51.317825,204.502625 56.242111,205.280228 
	C57.585243,205.492310 58.678780,206.107224 58.488491,208.305176 
	C57.940563,214.633972 59.782303,215.784698 65.846367,213.635223 
	C67.044792,213.210434 68.396736,213.218735 70.046165,213.038208 
	C70.796074,217.784744 71.177696,222.520386 71.726883,227.634384 
	C73.611183,230.385818 73.111137,233.208923 73.495956,236.264771 
	C73.645126,237.215607 73.650742,237.757431 73.323158,238.660583 
	C73.123619,239.020523 72.940269,239.364166 72.910172,239.556519 
	C70.727226,240.221130 68.867699,238.930328 66.433746,238.729767 
	C65.402626,238.487534 64.762589,238.257034 63.782028,237.992371 
	C59.842529,236.733017 56.172276,235.682907 52.657188,234.251694 
	C39.135960,228.746277 35.289791,219.260925 40.237904,203.450073 
z"/>
<path fill="#9D707F" opacity="1.000000" stroke="none" 
	d="
M73.397736,239.015747 
	C73.041840,238.574570 72.960060,238.128632 72.922531,237.344131 
	C73.253113,236.829041 73.539459,236.652512 74.319519,236.580017 
	C75.046410,237.321442 75.279564,237.958817 75.411407,238.840317 
	C74.764023,239.059937 74.217934,239.035446 73.397736,239.015747 
z"/>
<path fill="#E7C3CB" opacity="1.000000" stroke="none" 
	d="
M417.736481,147.001419 
	C417.454620,145.931183 417.465424,144.735550 417.705261,143.263977 
	C419.351837,144.250244 419.329346,145.547546 417.736481,147.001419 
z"/>
<path fill="#E7C3CB" opacity="1.000000" stroke="none" 
	d="
M418.205444,130.809616 
	C416.985901,130.019211 417.223358,128.779724 417.333923,127.233765 
	C419.332275,127.693520 419.190063,129.071045 418.205444,130.809616 
z"/>
<path fill="#E7C3CB" opacity="1.000000" stroke="none" 
	d="
M416.757446,154.044006 
	C416.519531,153.559952 416.521332,152.980988 416.743927,152.197113 
	C417.984894,152.627747 417.898712,153.281662 416.757446,154.044006 
z"/>
<path fill="#E7C3CB" opacity="1.000000" stroke="none" 
	d="
M417.152740,122.879463 
	C416.694153,122.496918 416.464722,121.978035 416.325745,121.170822 
	C417.312744,121.204453 418.091370,121.587616 417.152740,122.879463 
z"/>
<path fill="#8F6472" opacity="1.000000" stroke="none" 
	d="
M390.084534,84.074799 
	C390.163361,84.915436 390.103058,85.577538 390.022583,86.735260 
	C388.508484,87.871346 387.638977,87.172516 386.992126,85.488739 
	C387.222595,84.816910 387.517731,84.513802 388.274170,83.769211 
	C389.138824,83.517235 389.542114,83.706749 390.084534,84.074799 
z"/>
<path fill="#FEEAEB" opacity="1.000000" stroke="none" 
	d="
M396.227264,149.662979 
	C395.997894,151.850113 394.391083,152.271194 393.108002,152.953552 
	C388.728699,155.282578 384.407196,157.739685 379.919403,159.839630 
	C375.619019,161.851868 371.466003,161.573959 368.184326,157.657639 
	C365.992767,155.042221 364.175751,153.927414 360.354370,155.836349 
	C352.622803,159.698578 344.663116,158.319366 336.834229,155.015457 
	C331.888428,152.928268 327.875854,148.418457 321.875763,149.007217 
	C320.407104,149.151367 318.798035,149.153946 317.521667,149.773788 
	C300.255554,158.158844 280.792999,159.047989 263.042297,165.773788 
	C261.336426,166.420135 259.347717,166.300507 258.943970,169.081772 
	C252.624130,169.585983 246.489120,168.031357 240.153824,168.241440 
	C228.626907,168.623672 218.600708,171.672684 211.700089,181.641891 
	C211.320862,182.189743 210.794052,182.606018 209.860428,183.099075 
	C199.689972,184.622192 189.974014,186.573944 180.054565,187.025223 
	C174.852859,187.261871 169.841690,186.855530 165.041733,184.547134 
	C156.040024,180.217972 147.277206,183.049408 138.666428,185.932922 
	C125.215164,190.437378 113.238434,197.761917 101.409309,205.991745 
	C98.430710,204.110275 95.768135,204.876785 93.094185,205.953400 
	C87.376572,208.255539 81.467407,209.692108 74.823120,209.773102 
	C73.648300,206.415314 74.151489,203.101334 74.032341,199.396683 
	C74.158012,197.751770 74.270882,196.519760 74.301704,194.924149 
	C74.977692,192.988129 75.086548,191.307220 75.072014,189.283234 
	C75.171028,188.639160 75.246490,188.313599 75.258606,187.743164 
	C75.752495,186.278687 76.123566,185.017822 76.073280,183.326263 
	C76.331779,182.233719 76.563835,181.472580 76.756363,180.309036 
	C76.842995,179.486816 76.940681,179.060486 77.044113,178.300964 
	C77.253380,177.681305 77.340080,177.364151 77.274750,176.782074 
	C78.723915,172.342239 79.650345,167.971634 80.969948,163.361435 
	C81.086395,162.691635 81.196190,162.374496 81.267395,161.806274 
	C81.333977,160.847565 81.811104,160.299866 82.146332,159.314545 
	C83.443954,154.412720 86.504318,151.469620 90.193161,148.638397 
	C124.321930,122.444099 160.987457,100.821136 201.735580,86.601410 
	C209.718292,83.815720 218.074585,82.100586 226.628906,79.735214 
	C228.215363,78.838608 229.771469,79.200272 231.299667,78.304291 
	C232.230240,78.272575 232.817215,78.294449 233.684296,78.208527 
	C234.404343,78.056221 234.842987,78.001526 235.605515,77.871643 
	C236.716370,77.739891 237.502075,77.673141 238.642731,77.427170 
	C239.768219,77.062469 240.558807,77.013725 241.630264,76.843658 
	C243.033142,76.679176 244.146332,76.576004 245.633484,76.278214 
	C246.437195,76.044411 246.865250,75.991295 247.608429,75.859177 
	C251.350693,75.297974 254.776367,74.803665 258.585968,74.195679 
	C259.756012,74.018845 260.547638,74.019768 261.613281,73.804138 
	C263.039368,73.595840 264.179230,73.462593 265.648682,73.215897 
	C279.375397,72.238029 292.696075,70.242706 306.164185,70.415993 
	C309.653900,70.460892 313.201447,70.784798 316.625366,70.297821 
	C328.046234,68.673431 336.703735,73.836067 344.973663,80.784157 
	C353.513550,87.959068 361.767639,95.387268 369.438263,103.918526 
	C370.726959,104.608627 370.786377,105.839767 371.782593,106.754227 
	C372.360229,107.616600 372.708984,108.266647 373.087036,109.194298 
	C374.895142,113.082367 370.801605,113.436050 369.654022,115.559669 
	C372.153717,115.734283 374.163544,113.299500 376.969971,114.732849 
	C384.562469,123.431129 389.454224,133.381668 394.493408,143.692245 
	C394.920227,144.643570 395.201294,145.244507 395.724243,146.098297 
	C395.881439,146.812988 395.914612,147.217804 395.937988,147.927765 
	C396.324097,148.522675 396.486450,148.916763 396.227264,149.662979 
z"/>
<path fill="#FDFDFD" opacity="1.000000" stroke="none" 
	d="
M102.726593,118.087685 
	C111.098534,104.788399 121.751472,94.014160 133.283478,83.571594 
	C150.679565,69.892540 169.243866,59.027058 190.173828,52.454575 
	C215.724579,44.431057 241.715866,42.611355 268.152100,46.613010 
	C270.779358,47.010708 273.436829,47.357697 276.104004,48.988335 
	C267.388397,53.461773 260.692993,60.764675 252.894638,66.570107 
	C251.412613,67.673378 249.709702,68.609108 247.894226,68.744530 
	C242.966141,69.112160 238.578354,71.146706 233.726868,72.946579 
	C231.574387,73.484756 230.133072,74.670105 228.228470,75.654411 
	C227.545044,75.997818 227.125168,76.130531 226.373230,76.247314 
	C224.637421,75.128212 223.510208,73.577385 221.334198,73.901924 
	C218.973831,74.253975 217.113708,73.250267 215.741318,71.342926 
	C213.836700,68.695908 211.653305,69.048470 210.046585,71.331139 
	C205.267136,78.121246 197.559448,79.177925 190.554276,81.240173 
	C179.237274,84.571777 167.218826,84.997292 156.056427,89.160683 
	C145.244644,93.193298 134.984711,98.308922 125.694160,105.158653 
	C119.411797,109.790527 112.408737,113.466034 106.925926,119.180099 
	C106.000633,120.144417 104.792557,120.801041 103.010178,120.175110 
	C102.491447,119.460983 102.450180,118.960091 102.726593,118.087685 
z"/>
<path fill="#FAE5E7" opacity="1.000000" stroke="none" 
	d="
M386.614532,84.980759 
	C387.747894,85.765358 388.568359,86.410698 389.695618,87.143456 
	C393.660004,90.570503 397.317566,93.910126 401.145203,97.545319 
	C394.739990,103.775055 387.356964,107.957260 377.924622,108.282013 
	C367.869171,97.190742 358.337463,86.109299 346.560913,77.281815 
	C344.497437,75.735085 342.505371,74.093063 339.308075,71.569977 
	C356.895844,72.992096 371.928284,77.734062 386.614532,84.980759 
z"/>
<path fill="#FEEBEC" opacity="1.000000" stroke="none" 
	d="
M231.772614,72.404984 
	C237.398895,70.695984 242.356827,68.094566 248.039673,67.262192 
	C253.989304,66.390747 257.484222,60.871513 262.048523,57.393085 
	C266.181030,54.243732 269.613342,49.986435 275.877502,49.474461 
	C279.575256,49.128757 282.603424,49.821838 285.844208,51.200577 
	C286.223511,51.633293 286.302124,51.854614 286.409790,52.427147 
	C286.271637,53.249218 286.037384,53.704796 285.635864,53.989563 
	C280.808289,57.413651 280.839081,58.162369 286.230469,61.874928 
	C287.235413,64.044174 286.743134,65.706757 285.274109,67.522690 
	C284.249878,67.899742 283.500519,67.995445 282.376465,68.026054 
	C281.437042,67.446625 280.976868,66.809242 279.990784,66.405273 
	C279.183441,66.217255 278.638458,66.151054 277.804840,66.309204 
	C277.162109,66.567253 276.902008,66.842262 276.601471,67.480820 
	C276.272125,68.121620 275.984497,68.390434 275.316895,68.651070 
	C271.866760,69.233803 268.698914,69.715569 265.218323,70.384720 
	C261.918823,70.785461 258.932037,70.998802 255.494751,71.201775 
	C253.795456,70.531944 252.589188,70.398674 251.238754,71.696320 
	C247.577866,73.160187 243.959686,73.063835 240.021851,73.340607 
	C239.195602,73.134529 238.813950,73.248009 238.243622,73.723785 
	C236.265533,74.331665 234.517395,74.727943 232.383698,75.111069 
	C231.361176,74.413361 231.242081,73.631248 231.772614,72.404984 
z"/>
<path fill="#FEEBEC" opacity="1.000000" stroke="none" 
	d="
M285.896027,53.332279 
	C286.011108,52.737083 286.022186,52.472618 286.089050,51.810066 
	C290.075134,51.828259 293.688538,53.363136 297.692841,54.813423 
	C298.866669,56.221050 299.316345,58.210278 301.810669,56.706635 
	C306.946075,57.680725 311.203522,60.174328 315.844727,62.559128 
	C316.763458,63.779335 317.021820,64.809418 316.254456,66.257988 
	C315.535339,66.625702 315.097473,66.684578 314.337769,66.652023 
	C312.910828,65.825920 311.779633,65.379295 310.256592,66.402817 
	C304.332916,66.820099 298.682129,67.079239 292.570740,67.303719 
	C290.960663,66.959030 289.829254,66.965622 288.394043,67.562622 
	C287.295990,67.759132 286.529663,67.854935 285.381287,67.877396 
	C285.329407,66.119354 285.659607,64.434662 285.994904,62.374786 
	C286.353699,60.074512 288.667084,59.780716 289.363342,57.954414 
	C287.123047,57.381783 283.999756,57.465885 285.896027,53.332279 
z"/>
<path fill="#FCFBFB" opacity="1.000000" stroke="none" 
	d="
M377.662750,108.428513 
	C386.121704,106.748787 393.228119,102.112495 400.937347,97.914078 
	C402.716248,98.600815 403.530518,99.840767 404.185608,101.585297 
	C397.413605,105.202415 389.693909,106.600060 383.592468,111.533600 
	C382.941589,112.059891 381.705505,111.862480 380.350250,112.009369 
	C378.745453,111.253738 378.281586,109.982613 377.662750,108.428513 
z"/>
<path fill="#FCFBFB" opacity="1.000000" stroke="none" 
	d="
M377.193298,114.572975 
	C374.780273,114.693367 372.896759,116.459091 370.643707,116.897385 
	C369.572906,117.105690 368.084808,118.840439 367.271576,116.772980 
	C366.685760,115.283699 368.030212,114.268044 369.139374,113.594177 
	C370.634033,112.686104 372.815369,112.674545 373.072998,109.875793 
	C374.985107,110.608315 376.326324,112.189262 377.193298,114.572975 
z"/>
<path fill="#FAE5E7" opacity="1.000000" stroke="none" 
	d="
M316.370667,66.679008 
	C315.991760,65.566795 316.010284,64.566765 316.051270,63.189758 
	C318.414948,63.429909 320.466858,64.558289 323.332703,66.791191 
	C320.407715,66.791191 318.587891,66.791191 316.370667,66.679008 
z"/>
<path fill="#FAE5E7" opacity="1.000000" stroke="none" 
	d="
M275.391266,68.825897 
	C275.154572,68.487114 275.338562,68.278709 275.778717,68.038658 
	C276.615997,67.236519 276.013397,66.226326 276.778961,65.245819 
	C277.751221,65.003479 278.500000,65.003197 279.623169,65.003448 
	C280.606140,65.723206 280.773651,66.527878 280.230896,67.788208 
	C278.579620,68.401199 277.163757,68.650482 275.391266,68.825897 
z"/>
<path fill="#FDE7E9" opacity="1.000000" stroke="none" 
	d="
M301.863159,56.351357 
	C301.973846,58.036217 301.363617,59.112301 299.659088,58.873165 
	C297.820984,58.615280 298.081451,57.096867 297.999969,55.424370 
	C299.204193,55.407196 300.410004,55.784225 301.863159,56.351357 
z"/>
<path fill="#FAE5E7" opacity="1.000000" stroke="none" 
	d="
M310.377625,66.675400 
	C310.912048,63.861179 312.132599,63.103928 313.957214,66.266357 
	C312.934479,66.637016 311.853058,66.713440 310.377625,66.675400 
z"/>
<path fill="#FAE5E7" opacity="1.000000" stroke="none" 
	d="
M288.404114,67.743042 
	C289.051056,66.374870 290.115997,65.379677 291.946045,66.982780 
	C290.988739,67.453621 289.867310,67.638184 288.404114,67.743042 
z"/>
<path fill="#FDE7E9" opacity="1.000000" stroke="none" 
	d="
M280.334259,68.192337 
	C279.996460,67.364372 279.997467,66.576828 279.998016,65.396622 
	C281.449615,65.059982 282.026886,65.889061 281.996460,67.610413 
	C281.558838,68.051559 281.115967,68.142166 280.334259,68.192337 
z"/>
<path fill="#946976" opacity="1.000000" stroke="none" 
	d="
M371.978210,106.632553 
	C370.848297,106.645584 370.332825,105.719193 369.811401,104.399109 
	C370.951813,104.329788 371.683502,105.077583 371.978210,106.632553 
z"/>
<path fill="#946976" opacity="1.000000" stroke="none" 
	d="
M395.879456,146.105804 
	C395.427856,145.789032 395.007416,145.169907 394.660217,144.273895 
	C395.571930,144.308472 395.949219,144.920471 395.879456,146.105804 
z"/>
<path fill="#FDE7E9" opacity="1.000000" stroke="none" 
	d="
M396.173706,149.935913 
	C395.993530,149.549271 395.982178,149.172440 395.949524,148.514252 
	C396.198730,148.638657 396.469269,149.044388 396.709961,149.707016 
	C396.680145,149.963913 396.342499,149.945724 396.173706,149.935913 
z"/>
<path fill="#FAE5E7" opacity="1.000000" stroke="none" 
	d="
M102.690628,120.233368 
	C109.657257,115.211868 116.309189,110.373756 122.963326,105.538689 
	C139.148621,93.778023 156.769791,85.540398 176.838608,82.919373 
	C186.325836,81.680321 195.445862,78.780594 204.353958,75.289078 
	C205.945129,74.665421 207.018600,73.520226 207.924118,72.002609 
	C210.994934,66.856064 213.563843,66.586365 217.002197,71.111435 
	C218.359039,72.897102 219.794785,73.342865 221.718216,72.597900 
	C224.533142,71.507645 225.816010,72.615578 226.029205,75.830292 
	C198.889465,81.806450 173.709503,92.549706 149.403290,105.549767 
	C131.022400,115.380692 113.476395,126.545395 96.349724,138.984192 
	C94.181831,136.573334 96.049797,135.177841 97.680122,133.794388 
	C98.958855,132.709290 100.449043,131.728439 99.630753,129.758575 
	C98.012321,125.862579 100.283051,123.182693 102.690628,120.233368 
z"/>
<path fill="#F6F0F2" opacity="1.000000" stroke="none" 
	d="
M102.997032,119.661583 
	C101.729012,123.662163 98.137245,126.880302 101.723709,131.260544 
	C102.653671,132.396332 100.389008,133.193649 99.467323,134.001816 
	C98.047249,135.246964 95.762207,135.755981 96.016548,138.704102 
	C94.137688,140.825287 92.301125,142.623596 90.349312,144.286652 
	C89.487595,145.020889 88.324471,145.758591 87.962929,143.366577 
	C92.294167,134.459167 96.934677,126.087563 102.596565,117.937187 
	C102.914352,118.244987 102.952049,118.759773 102.997032,119.661583 
z"/>
<path fill="#946B78" opacity="1.000000" stroke="none" 
	d="
M80.700333,163.239914 
	C80.722275,167.552597 79.100403,171.757004 77.478256,176.284485 
	C77.091377,171.891846 78.974686,167.734787 80.700333,163.239914 
z"/>
<path fill="#946B78" opacity="1.000000" stroke="none" 
	d="
M73.740219,199.270828 
	C75.106293,202.239212 74.049065,205.557953 74.352493,209.261490 
	C74.119698,209.900574 73.902405,210.140335 73.506012,210.534027 
	C72.928452,206.955673 72.620590,203.249878 73.740219,199.270828 
z"/>
<path fill="#946B78" opacity="1.000000" stroke="none" 
	d="
M74.826141,236.257385 
	C74.508110,236.752472 74.202965,236.820892 73.432297,236.947449 
	C72.576691,234.284286 72.186600,231.563004 71.845474,228.427216 
	C72.337830,228.007294 72.781212,228.001877 73.556915,227.993256 
	C74.205833,230.603607 74.522430,233.217163 74.826141,236.257385 
z"/>
<path fill="#FAE5E7" opacity="1.000000" stroke="none" 
	d="
M251.347351,71.971977 
	C252.194733,68.683609 252.826950,68.454735 254.992340,70.838509 
	C253.928879,71.471123 252.813522,71.750839 251.347351,71.971977 
z"/>
<path fill="#FAE5E7" opacity="1.000000" stroke="none" 
	d="
M231.691895,72.176987 
	C231.990692,72.806000 231.995132,73.569038 231.998856,74.714981 
	C230.884705,75.395935 229.771286,75.693977 228.311386,75.928558 
	C228.168259,73.771683 230.324066,73.564018 231.691895,72.176987 
z"/>
<path fill="#946B78" opacity="1.000000" stroke="none" 
	d="
M74.785507,189.236313 
	C75.793526,190.734100 75.607765,192.439743 74.472588,194.327850 
	C74.055199,192.863678 73.665794,191.155457 74.785507,189.236313 
z"/>
<path fill="#8F6472" opacity="1.000000" stroke="none" 
	d="
M231.242035,78.185661 
	C230.645691,79.579063 229.129028,79.508667 227.356079,79.643997 
	C227.657532,77.453453 229.376602,78.122772 231.242035,78.185661 
z"/>
<path fill="#946B78" opacity="1.000000" stroke="none" 
	d="
M75.829590,183.185867 
	C76.641678,184.399231 76.560562,185.744507 75.456711,187.257935 
	C75.097458,186.105118 74.613297,184.677795 75.829590,183.185867 
z"/>
<path fill="#8F6472" opacity="1.000000" stroke="none" 
	d="
M261.688293,73.522308 
	C261.206482,74.446617 260.334656,74.426689 259.206421,74.203415 
	C259.566986,73.045830 260.423370,72.857903 261.688293,73.522308 
z"/>
<path fill="#8F6472" opacity="1.000000" stroke="none" 
	d="
M241.739716,76.579742 
	C241.144272,77.005638 240.368607,77.228920 239.295288,77.350082 
	C239.506546,75.942558 240.410904,75.800606 241.739716,76.579742 
z"/>
<path fill="#946B78" opacity="1.000000" stroke="none" 
	d="
M71.129395,203.877441 
	C70.235718,203.216354 70.361565,202.327179 70.845512,201.217346 
	C72.088264,201.780533 72.177902,202.683868 71.129395,203.877441 
z"/>
<path fill="#946B78" opacity="1.000000" stroke="none" 
	d="
M77.316780,159.177017 
	C77.045937,158.946136 77.034760,158.762817 77.026596,158.304321 
	C78.057236,158.237732 79.849937,157.319427 79.178818,159.844772 
	C78.476883,159.761719 78.026665,159.493149 77.316780,159.177017 
z"/>
<path fill="#8F6472" opacity="1.000000" stroke="none" 
	d="
M247.794510,75.616180 
	C247.445862,75.970642 246.966705,76.149017 246.247482,76.205498 
	C246.345398,75.317680 246.803940,74.862099 247.794510,75.616180 
z"/>
<path fill="#8F6472" opacity="1.000000" stroke="none" 
	d="
M235.762833,77.607086 
	C235.403595,77.979820 234.876511,78.153008 234.156921,78.213455 
	C234.310715,77.405716 234.771927,76.981041 235.762833,77.607086 
z"/>
<path fill="#946B78" opacity="1.000000" stroke="none" 
	d="
M81.977386,159.122726 
	C82.604027,159.841980 82.206818,160.519135 81.469131,161.363510 
	C81.081978,160.727280 80.973572,159.907455 81.977386,159.122726 
z"/>
<path fill="#946B78" opacity="1.000000" stroke="none" 
	d="
M76.850060,178.091537 
	C77.624817,178.523239 77.471230,179.083450 76.911087,179.776855 
	C76.088608,179.374069 76.027802,178.809753 76.850060,178.091537 
z"/>
<path fill="#FAE5E7" opacity="1.000000" stroke="none" 
	d="
M238.336212,73.950500 
	C238.340134,73.693520 238.666565,73.451660 239.309204,73.203201 
	C239.303162,73.452950 238.980942,73.709290 238.336212,73.950500 
z"/>
<path fill="#885265" opacity="1.000000" stroke="none" 
	d="
M209.387207,183.617355 
	C219.201538,167.210983 234.465591,165.863205 250.860016,167.666718 
	C253.310486,167.936279 255.700348,168.756622 258.510193,169.403854 
	C264.714386,172.151123 270.004456,175.507904 273.619751,180.964630 
	C274.528046,182.335571 275.230652,183.857697 275.902740,185.366058 
	C276.597046,186.924301 276.429413,188.396118 274.641205,189.065765 
	C273.081329,189.649948 272.122894,188.630371 271.479706,187.361099 
	C265.059357,174.690933 253.520248,172.210831 240.543274,172.158066 
	C233.826385,173.481674 227.519958,174.920395 221.228928,177.740631 
	C211.982162,184.935699 210.457336,193.992920 216.600601,202.100372 
	C218.641937,204.794373 220.875748,205.680771 224.328156,205.039322 
	C232.164932,203.583252 240.067017,202.252625 248.096802,203.762741 
	C251.588226,204.419342 254.999878,205.700150 255.129059,209.641495 
	C255.270782,213.965469 251.577896,215.219177 248.012314,215.989838 
	C239.539093,217.821259 231.393463,216.124237 223.656525,212.884613 
	C220.141220,211.412689 217.347183,211.814316 214.185684,213.212494 
	C201.996201,218.603302 196.592773,230.406540 201.391769,241.762604 
	C204.085907,248.137863 209.371170,251.953690 215.597717,254.307404 
	C230.830215,260.065582 246.217026,259.571075 261.884827,254.586090 
	C266.647491,251.161697 271.704803,249.022064 276.805725,246.223907 
	C282.445770,242.947556 285.971466,238.221497 288.820770,232.908340 
	C289.627350,231.404282 290.424591,229.656036 292.490387,230.596283 
	C294.820160,231.656693 294.095490,233.630249 293.165131,235.255173 
	C291.620972,237.952103 289.884491,240.538925 288.058716,243.454712 
	C279.276398,253.501816 268.225128,258.919769 255.365631,261.906616 
	C243.058060,264.166016 231.184326,264.396271 219.405731,260.990723 
	C214.403275,259.544342 209.617065,257.592010 205.464005,254.441635 
	C189.266678,242.154846 191.370041,219.427902 209.695816,210.051819 
	C213.235046,208.241013 214.430283,207.256943 211.582458,203.548920 
	C207.083862,197.691467 207.110245,190.876999 209.387207,183.617355 
z"/>
<path fill="#F5BBC8" opacity="1.000000" stroke="none" 
	d="
M301.297974,358.971527 
	C305.736908,352.732117 310.560883,346.504974 315.677002,340.110474 
	C315.977539,340.108032 315.967285,340.276428 315.997070,340.437439 
	C318.040649,351.472656 318.052216,351.495392 307.612946,356.664124 
	C305.715698,357.603485 303.960266,358.985443 301.297974,358.971527 
z"/>
<path fill="#E6B4C5" opacity="1.000000" stroke="none" 
	d="
M318.098022,337.857300 
	C318.876709,335.176086 320.524200,332.871124 322.913513,330.800415 
	C326.523254,335.017365 325.597778,336.444427 318.098022,337.857300 
z"/>
<path fill="#F5BBC8" opacity="1.000000" stroke="none" 
	d="
M276.757202,245.921906 
	C273.301056,250.387741 268.218018,252.506958 262.528137,254.266876 
	C263.809021,244.367935 267.453003,243.808304 276.757202,245.921906 
z"/>
<path fill="#F9E5E7" opacity="1.000000" stroke="none" 
	d="
M221.074371,178.051178 
	C226.294006,173.354584 232.611298,171.821686 239.848389,172.217682 
	C234.557892,176.382324 228.121338,177.973862 221.074371,178.051178 
z"/>
<path fill="#FDE7E9" opacity="1.000000" stroke="none" 
	d="
M285.660706,53.148537 
	C287.291107,53.751801 284.282349,57.902645 288.624451,56.288040 
	C289.691193,55.891384 291.044067,55.598141 291.661652,56.987278 
	C292.334656,58.501221 290.869659,58.955563 289.986053,59.587948 
	C288.912018,60.356632 287.758148,61.013714 286.319397,61.859337 
	C281.778198,62.782074 280.814514,59.233440 280.339630,56.716465 
	C279.686279,53.253525 283.692535,54.586754 285.660706,53.148537 
z"/>
<path fill="#FDE7E9" opacity="1.000000" stroke="none" 
	d="
M276.700317,65.037819 
	C276.841034,65.861168 276.679626,66.718582 276.244568,67.763245 
	C275.708008,66.930786 274.333405,65.746017 276.700317,65.037819 
z"/>
<path fill="#E6B4C5" opacity="1.000000" stroke="none" 
	d="
M239.207855,211.834305 
	C235.287323,211.644043 231.934341,210.962067 228.690262,209.138947 
	C235.238342,207.884552 241.782135,207.425446 248.388214,208.468597 
	C248.877182,208.545792 249.543610,209.258408 249.629349,209.760666 
	C249.803223,210.779419 248.829895,211.100616 248.065033,211.356247 
	C245.313950,212.275787 242.465317,211.746033 239.207855,211.834305 
z"/>
</svg>